<svg xmlns="http://www.w3.org/2000/svg" viewBox="0 0 100 48" xml:space="preserve">
	<g fill="#F7EB55">
	  <path d="M64.133 12.493c3.562 0 6.45-2.412 6.45-5.387 0-2.975-2.888-5.387-6.45-5.387-3.563 0-6.45 2.412-6.45 5.387-.001 2.975 2.887 5.387 6.45 5.387z"/>
	  <path d="M71.53 10.645c-9.926 9.218-16.82.424-16.82.424-.797 1.709 18.238 12.693 20.365 30.951 2.399 20.584 6.382-40.592-3.545-31.375z"/>
	</g>
	<g fill="#fff">
	  <path d="M7.685 31.784h10.7v10.653h4.83V18.772h-4.83v10.354h-10.7V18.772h-4.83v23.665h4.83zM31.558 42.738c.57 0 1.09-.058 1.56-.173.47-.116.916-.269 1.34-.462a9.627 9.627 0 0 0 1.213-.659c.385-.246.778-.5 1.179-.763.108.231.239.462.393.693.154.231.343.443.566.636.223.193.489.347.797.462.308.116.678.173 1.109.173.4 0 .809-.046 1.225-.139a7.242 7.242 0 0 0 2.288-.947 5.95 5.95 0 0 0 .878-.67v-1.063c-.678.185-1.225.277-1.641.277-.863 0-1.294-.847-1.294-2.542v-7.303c0-.755-.104-1.387-.312-1.895a2.936 2.936 0 0 0-.901-1.225c-.393-.308-.878-.528-1.456-.659a8.866 8.866 0 0 0-1.953-.196c-.663 0-1.321.054-1.976.162-.655.108-1.302.254-1.941.439-.64.185-1.271.393-1.895.624-.624.231-1.221.47-1.791.716l.647 1.641a13.325 13.325 0 0 1 2.45-.693 12.11 12.11 0 0 1 2.08-.208c.832 0 1.425.143 1.779.428.354.285.532.736.532 1.352v2.288l-2.843.092c-1.14.031-2.103.15-2.889.358-.786.208-1.425.516-1.918.924a3.517 3.517 0 0 0-1.075 1.525c-.224.609-.335 1.329-.335 2.161 0 1.556.373 2.719 1.121 3.49.748.771 1.769 1.156 3.063 1.156zm.809-5.824c.015-.246.038-.485.069-.716.031-.231.069-.439.116-.624.046-.185.1-.316.162-.393.139-.185.508-.343 1.109-.474.601-.131 1.479-.196 2.635-.196a64.978 64.978 0 0 0 .081 3.247l.058 1.086c.015.285.031.459.046.52-.478.185-.956.339-1.433.462a6.006 6.006 0 0 1-1.502.185c-.493 0-.844-.227-1.052-.682-.208-.454-.312-1.036-.312-1.745 0-.2.007-.423.023-.67zM51.71 32.685h1.618l1.317 2.496a49.682 49.682 0 0 0 1.618 2.9c.493.809.955 1.491 1.387 2.045.431.555.851 1.002 1.259 1.34.408.339.824.597 1.248.774.424.177.878.297 1.363.358.485.062 1.021.093 1.606.093.616 0 1.171-.039 1.664-.116a8.823 8.823 0 0 0 1.317-.3v-1.502h-.162c-.755 0-1.464-.235-2.126-.705-.662-.47-1.31-1.109-1.941-1.918a26.737 26.737 0 0 1-1.907-2.831 451.723 451.723 0 0 1-2.022-3.443 10.793 10.793 0 0 0 1.687-.947 6.215 6.215 0 0 0 1.433-1.375 6.815 6.815 0 0 0 1.005-1.93c.254-.74.381-1.602.381-2.588 0-2.219-.74-3.852-2.219-4.899-1.479-1.048-3.651-1.572-6.517-1.572-.555 0-1.137.008-1.745.023-.609.016-1.21.035-1.803.058s-1.171.05-1.733.081c-.563.031-1.083.062-1.56.092v23.619h4.83v-9.753zm0-11.578c.2-.031.424-.054.67-.069.246-.015.454-.023.624-.023.739 0 1.387.073 1.941.219.555.147 1.02.385 1.398.716.377.332.662.774.855 1.329.192.555.289 1.233.289 2.034 0 .724-.043 1.325-.127 1.803-.085.478-.2.875-.347 1.19-.146.316-.312.563-.497.739-.185.177-.37.327-.555.451-.355.247-.844.451-1.468.613a7.741 7.741 0 0 1-1.953.243h-.83v-9.245zM91.853 39.318c-.647.277-1.61.416-2.889.416a8.79 8.79 0 0 1-1.849-.22 19.452 19.452 0 0 1-1.999-.543 20.74 20.74 0 0 1-1.849-.705c-.578-.254-1.036-.497-1.375-.728l-1.179 3.513c.523.262 1.047.497 1.571.705.524.208 1.071.389 1.641.543.57.154 1.175.269 1.814.347a17.76 17.76 0 0 0 2.115.116c1.417 0 2.696-.216 3.836-.647 1.14-.431 2.114-.994 2.923-1.687.809-.693 1.433-1.471 1.872-2.334.439-.863.659-1.725.659-2.588 0-1.094-.166-2.026-.497-2.796a6.36 6.36 0 0 0-1.306-1.976 7.383 7.383 0 0 0-1.849-1.363 22.219 22.219 0 0 0-2.126-.971 67.02 67.02 0 0 0-2.126-.797 12.95 12.95 0 0 1-1.849-.809c-.539-.292-.975-.639-1.306-1.04-.332-.4-.497-.901-.497-1.502 0-.585.07-1.086.208-1.502.139-.416.362-.708.67-.878.308-.169.705-.281 1.19-.335.485-.054.951-.081 1.398-.081.416 0 .893.031 1.433.093.539.062 1.093.143 1.664.243.57.1 1.128.219 1.675.358.547.139 1.043.285 1.491.439l.74-3.513a42.138 42.138 0 0 0-2.9-.416 29.01 29.01 0 0 0-3.131-.162c-1.356 0-2.562.208-3.617.624-1.056.416-1.945.94-2.669 1.572-.724.632-1.275 1.333-1.652 2.103-.378.77-.566 1.502-.566 2.195 0 1.063.165 1.968.497 2.715a6.15 6.15 0 0 0 1.306 1.918 7.638 7.638 0 0 0 1.849 1.34c.693.362 1.398.682 2.114.959s1.422.539 2.115.786c.693.247 1.309.524 1.849.832.539.308.974.667 1.306 1.075.331.409.497.921.497 1.537 0 .878-.112 1.587-.335 2.126-.224.537-.513.884-.867 1.038zM77.671 44.439h19.473v1.126H77.671zM2.869 44.439h71.426v1.126H2.869z"/>
	</g>
</svg>