<svg xmlns="http://www.w3.org/2000/svg" viewBox="0 0 512 512" xml:space="preserve">
	<path fill="#488FCD" d="M512 473.599C512 494.808 494.807 512 473.6 512H38.4C17.192 512 0 494.808 0 473.599V38.4C0 17.192 17.192 0 38.4 0h435.2C494.807 0 512 17.192 512 38.4v435.199z"/>
	<g fill="#FFF">
	  <path d="M110.199 315.475v-50.48h-50.7v50.48H36.613v-112.13h22.886v49.057h50.699v-49.057h22.886v112.13h-22.885zM224.299 304.415c1.971 0 4.561-.438 7.775-1.314v5.037c-1.169 1.095-2.556 2.154-4.161 3.175a34.32 34.32 0 0 1-5.147 2.683 33.317 33.317 0 0 1-5.694 1.807 26.714 26.714 0 0 1-5.804.657c-2.045 0-3.796-.274-5.256-.821-1.461-.548-2.72-1.276-3.778-2.19a14.772 14.772 0 0 1-2.683-3.012 24.745 24.745 0 0 1-1.862-3.285 624.4 624.4 0 0 1-5.585 3.613 45.674 45.674 0 0 1-5.749 3.121 36.173 36.173 0 0 1-6.351 2.19c-2.227.548-4.691.821-7.392.821-6.132 0-10.969-1.824-14.509-5.475-3.542-3.65-5.311-9.161-5.311-16.535 0-3.942.528-7.354 1.588-10.238 1.057-2.883 2.755-5.292 5.092-7.227 2.335-1.933 5.365-3.394 9.088-4.38 3.723-.986 8.285-1.55 13.688-1.697l13.469-.438v-10.84c0-2.919-.84-5.055-2.519-6.406-1.68-1.35-4.49-2.026-8.432-2.026-2.847 0-6.132.329-9.855.985-3.723.657-7.593 1.752-11.607 3.285l-3.066-7.775c2.7-1.166 5.53-2.299 8.487-3.394s5.949-2.081 8.979-2.956a79.85 79.85 0 0 1 9.198-2.081 57.62 57.62 0 0 1 9.363-.766c3.43 0 6.516.311 9.253.93 2.738.621 5.037 1.662 6.898 3.121 1.862 1.461 3.285 3.394 4.271 5.803.985 2.409 1.478 5.403 1.478 8.979v34.603c.002 8.032 2.045 12.046 6.134 12.046zm-27.594-3.504c-.074-.291-.147-1.112-.219-2.464-.074-1.35-.164-3.066-.274-5.146-.11-2.081-.202-4.435-.274-7.063-.074-2.628-.11-5.401-.11-8.322-5.475 0-9.636.311-12.483.931-2.847.621-4.599 1.368-5.256 2.245-.292.366-.547.986-.766 1.861a26.925 26.925 0 0 0-.548 2.956 47.57 47.57 0 0 0-.328 3.394 50.641 50.641 0 0 0-.11 3.176c0 3.358.492 6.115 1.478 8.267.985 2.154 2.646 3.23 4.983 3.23 2.481 0 4.854-.291 7.118-.876a60.794 60.794 0 0 0 6.789-2.189zM275.766 269.265h-7.665v46.21h-22.886V203.564c2.262-.145 4.726-.291 7.392-.438 2.664-.146 5.402-.274 8.212-.383 2.81-.109 5.657-.2 8.542-.274 2.883-.071 5.639-.109 8.268-.109 13.578 0 23.87 2.483 30.879 7.446 7.008 4.965 10.513 12.702 10.513 23.215 0 4.672-.603 8.76-1.807 12.264-1.204 3.504-2.792 6.553-4.763 9.143-1.971 2.592-4.234 4.763-6.789 6.516a50.884 50.884 0 0 1-7.994 4.49 2312.259 2312.259 0 0 0 9.581 16.316c3.029 5.111 6.039 9.582 9.035 13.414 2.992 3.832 6.058 6.863 9.197 9.089 3.138 2.227 6.497 3.34 10.074 3.34h.767v7.118c-1.825.585-3.906 1.057-6.242 1.423-2.336.364-4.965.548-7.884.548-2.775 0-5.311-.147-7.61-.439-2.299-.292-4.452-.857-6.459-1.697-2.009-.838-3.98-2.061-5.914-3.668-1.935-1.605-3.925-3.723-5.968-6.351-2.044-2.628-4.234-5.858-6.571-9.691-2.336-3.833-4.891-8.413-7.665-13.742l-6.243-11.829zm-3.723-11.06c3.211 0 6.296-.383 9.253-1.15 2.956-.766 5.273-1.733 6.954-2.902a19.307 19.307 0 0 0 2.628-2.135c.876-.838 1.66-2.007 2.354-3.504.694-1.495 1.241-3.376 1.643-5.639.4-2.262.602-5.109.602-8.541 0-3.795-.456-7.008-1.368-9.636-.914-2.628-2.264-4.726-4.052-6.296-1.79-1.569-3.996-2.7-6.625-3.394-2.628-.693-5.694-1.04-9.197-1.04-.805 0-1.791.037-2.957.109a35.868 35.868 0 0 0-3.175.329v43.8h3.94zM483.381 282.625c0 4.089-1.041 8.176-3.121 12.264-2.081 4.089-5.037 7.775-8.87 11.06-3.833 3.285-8.45 5.951-13.852 7.994-5.404 2.043-11.462 3.066-18.177 3.066-3.651 0-6.992-.183-10.02-.548-3.03-.366-5.896-.914-8.596-1.643a71.742 71.742 0 0 1-7.775-2.573 94.195 94.195 0 0 1-7.445-3.34l5.585-16.644c1.606 1.095 3.777 2.245 6.515 3.45a97.242 97.242 0 0 0 8.761 3.34 92.187 92.187 0 0 0 9.471 2.573c3.211.695 6.132 1.041 8.761 1.041 6.058 0 10.622-.657 13.687-1.972 1.679-.729 3.048-2.371 4.107-4.927 1.058-2.555 1.587-5.913 1.587-10.074 0-2.919-.784-5.346-2.353-7.282-1.571-1.933-3.633-3.63-6.188-5.092-2.556-1.459-5.476-2.773-8.76-3.942a384.166 384.166 0 0 1-10.02-3.723 98.202 98.202 0 0 1-10.019-4.544c-3.285-1.715-6.207-3.832-8.761-6.351-2.556-2.519-4.617-5.547-6.187-9.089-1.571-3.54-2.354-7.829-2.354-12.867 0-3.285.893-6.752 2.682-10.403 1.789-3.65 4.397-6.97 7.829-9.965 3.43-2.992 7.646-5.475 12.648-7.447 4.999-1.971 10.712-2.956 17.137-2.956 5.182 0 10.128.257 14.838.767 4.708.512 9.288 1.168 13.742 1.971l-3.505 16.644a89.424 89.424 0 0 0-7.063-2.081 109.69 109.69 0 0 0-7.939-1.697 134.137 134.137 0 0 0-7.884-1.15c-2.557-.291-4.819-.439-6.79-.439-2.118 0-4.326.129-6.625.383-2.299.257-4.179.785-5.638 1.588-1.462.805-2.52 2.19-3.176 4.161s-.986 4.344-.986 7.118c0 2.847.784 5.22 2.355 7.118 1.568 1.899 3.631 3.542 6.187 4.927 2.555 1.387 5.474 2.666 8.76 3.832a326.388 326.388 0 0 1 10.074 3.778 104.795 104.795 0 0 1 10.074 4.599 34.974 34.974 0 0 1 8.761 6.461c2.555 2.592 4.615 5.713 6.186 9.363 1.572 3.652 2.357 8.068 2.357 13.251z"/>
	</g>
	<g fill="#F7EB55">
	  <path d="M357.525 148.068c0 14.097-13.685 25.524-30.564 25.524-16.88 0-30.564-11.427-30.564-25.524 0-14.095 13.683-25.523 30.564-25.523 16.88 0 30.564 11.428 30.564 25.523z"/>
	  <path d="M282.317 166.843s32.664 41.666 79.696-2.009c47.035-43.673 28.162 246.194 16.797 148.66-10.078-86.509-100.269-138.553-96.493-146.651z"/>
	</g>
	<path fill="#FFF" d="M391.108 324.959h92.267v5.333h-92.267zM36.679 324.959H375.11v5.333H36.679z"/>
</svg>