<svg version="1.1" xmlns="http://www.w3.org/2000/svg" x="0" y="0" viewBox="0 0 512 512" xml:space="preserve">
	<path fill="#B0AED4" d="M335.6 25.6H176.4c-17.6 0-31.9 14.3-31.9 31.9v347.3c0 17.6 14.3 31.9 31.9 31.9h159.1c17.6 0 31.9-14.3 31.9-31.9V57.5c.1-17.6-14.3-31.9-31.8-31.9z"/>
	<path fill="#E7E7F9" d="M335.6 31.5H176.4c-14.3 0-25.9 11.6-25.9 25.9v347.3c0 14.3 11.6 25.9 25.9 25.9h159.1c14.3 0 25.9-11.6 25.9-25.9V57.5c.1-14.3-11.5-26-25.8-26z"/>
	<path opacity=".3" fill="#FFF" d="M361.5 404.8V57.5c0-14.3-11.6-25.9-25.9-25.9H176.4c-11.9 0-21.9 8-25 19 25.5-4.9 85.5 5.1 122.6 20 47.8 19.1 53.7 24.4 71.7 126.9 12.7 72.4 15.3 211.5-3 232.2 10.9-3.2 18.8-13.2 18.8-24.9z"/>
	<path fill="#FFF" d="M335.6 31.5H176.4c-7.7 0-14.7 3.4-19.4 8.8 4.6-4.1 10.6-6.5 17.2-6.5h159.1c14.3 0 25.9 11.6 25.9 25.9V407c0 6.6-2.5 12.6-6.5 17.2 5.4-4.8 8.8-11.7 8.8-19.4V57.5c0-14.3-11.6-26-25.9-26z"/>
	<path fill="#484599" d="M177.6 429.6c-14.3 0-25.9-11.6-25.9-25.9V224.9l-1-169.3c0 .6-.1 1.2-.1 1.8v347.3c0 14.3 11.6 25.9 25.9 25.9h159.1c1.4 0 2.7-.1 4-.3l-162-.7z"/>
	<g fill="#222221">
	  <path d="M250 141.1h4v4h-4v-4zm28.1 0v28h28.2v-28h-28.2zm24.2 8v16h-20.1v-20h20.1v4zm-88.5 4v8.1h12v-12.1h-12v4zm24.1 4.1h8v4h-8v-4z"/>
	  <path d="M250 161.2v4h4v-4h4v4h4v-4h4.1v-4H262v-4.1h12.1v-4h-8v-8H262v4h-8v8h4v4.1h-4v-4.1h-4v-4h-8.1v-8h-4v12h8v4.1h4.1v4zm20.1-4h4v4h-4v-4zm28.1 0v-8.1h-12v12.1h12v-4zm-64.3 8v-24h-28.2v28h28.2v-4zm-24.2 0v-20h20.1v20h-20.1zm28.2 0h4v4h-4v-4zm8 0h4v4h-4v-4zm8.1 0h4v4h-4v-4zm8 0h4v4h-4v-4zm-4 4h4v4h-4v-4zm36.2 8.1h-4v-4h-4v4h-4.1v4h-4v4h4v4.1h4.1v-8.1h4v8.1h12.1v4h4v-12.1h-4v4h-8.1v-4h8.1v-4h4v-4h-12.1v4zm-60.3 8v-4h-4v-4h4v4h4v-4h4v4h-4v4h8v4.1h4.1v-8.1h-4.1v-8h-28.1v4h8v4h-8v4h4v4.1h4v-4.1h8.1zm-24.2 0h4.1v-8h-4.1v-4h-4v36.2h4v-8.1h4.1v-4h-4.1v-4h4.1v-4h-4.1v-4.1zm4.1 0h4v4h-4v-4z"/>
	  <path d="M233.9 185.3h4v4h-4v-4zm24.1 8.1v-8.1h4v-4h4.1v4h8v-4h-4v-4h4v4h4v-8h-4v-8.1h-4v8.1h-4v4H258v4h-4v8.1h-4v4h8zm20.1-4h4v4h-4v-4zm-36.2 4h4v4h-4v-4zm56.3 4h-8v-4h-4v8h4v4h4v8.1h8.1v-8.1h-4.1v-4h4.1v4h4v-8h-4v-4h-4.1v4zm-76.4 0h-4v8h4v-8zm16.1 4h4v-4h-4v-4h-4v4h-4v-4h4v-4h-8.1v4h-4v4h4v8h4.1v-4h4v4h-4v4.1h8v-8.1z"/>
	  <path d="M286.2 201.4h-4v4h-4v-4h4v-4h-4v-4h-4v-4h-8v4h-8v4h-8v8h4v-4h12.1v8h-4v8h4v-4h4v4h-4v8h12.1v4h4v-4h8v-20h-4v-4h-.2zm0 12.1v8h-12.1v-12h12.1v4zm-64.4-8.1h4v4h-4v-4z"/>
	  <path d="M258 205.4h4v4h-4v-4zm0 8.1v-4h-8v-4h-4v-4h-4v8h4v4h-4v-4h-4v20h8v-4h4v-8h4v-4h4zm-12.1 8h-4v-4h4v4zm-40.2-4v24h28.2v-28h-28.2v4zm24.2 0v20h-20.1v-20h20.1zm48.2-4h4v4h-4v-4zm24.2 0h4v4h-4v-4z"/>
	  <path d="M262 221.5v-4h-8v8.1h4v-4.1h4zm36.2 0v8.1h-12v4h-4.1v4h8.1v-4h4v4h8.1v4h4v-20.1h-4v-4h-4.1v4zm-40.2 8.1h-4v4h8v-4h4.1v-4H258v4zm-32.2 0v-8.1h-12v12.1h12v-4zm48.3 0h4v4h-4v-4zm-36.2 8h4v4h-4v-4zm16.1 0v4h12.1v-8H262v4h-8zm16.1 0h8v4h-8v-4z"/>
	  <path d="M290.2 237.6h4v4h-4v-4z"/>
	</g>
	<linearGradient id="SVGID_1_" gradientUnits="userSpaceOnUse" x1="0" y1="75.852" x2="339.2" y2="75.852" gradientTransform="matrix(1 0 0 -1 0 512)">
	  <stop offset="0" style="stop-color:#fff"/>
	  <stop offset=".531" style="stop-color:#000"/>
	</linearGradient>
	<path opacity=".25" fill="url(#SVGID_1_)" d="M249.9 432.7h-19.6C103.1 432.6 0 434.2 0 436.1s103.1 3.5 230.2 3.5c41.8 0 97.4 0 109-2.9-21.7-1.9-61-2.3-89.3-4z"/>
	<path id="redline" fill="red" d="M190.4 125.7h131.2v2.7H190.4z"/>
	<path fill="#6770A7" d="M193.1 154.5h-2.7v-28.8h27.4v2.7h-24.7v26.1zm128.5 0h-2.7v-26.1h-24.7v-2.7h27.4v28.8zM217.8 257h-27.4v-26.1h2.7v23.4h24.7v2.7zm103.8 0h-27.4v-2.7h24.7v-23.4h2.7V257z"/>
	<path opacity=".6" fill="#FFF" d="M337.5 31.6 151 108.5l.4 56.1 210.1-79.9V57.5c0-13.7-10.6-24.9-24-25.9zM150.9 99.7c31.7-15.1 103.7-51.4 136.8-68.2H214l-63.4 34.1v7.5l.3 26.6z"/>
	<g id="man">
	  <path fill="#FF9489" d="m403.7 217.3.9-7.9s-6.2-4.5-6.9-6.7c-.7-2.2 1.3-8.2 1.3-8.2s-1.3-1.3-1.5-2.5c-.2-1.1 3.5-5.6 3.5-5.6s4.9-6.7 5.2-6.9c-1.3 6.7-1.5 14.8-1.5 14.8s1.3-4.2 3.8-5-1.4 8.9-2.3 9.8c3 4.5 7.5 8.6 7.5 8.6l3.2-3.2c.2 3.6 1.5 12.7 1.5 12.7l-14.7.1z"/>
	  <path fill="#FFD4D2" d="M415.7 205.9c.6 2.1 2.3 10.1-5 10.7-2.1.2-2.2.4-1.2.7h9s-1.3-9.2-1.5-12.7c-.4.5-.9.9-1.3 1.3z"/>
	  <path fill="#E7E7F9" d="m399.1 221.3 2.6-6.4s6.2.2 10.9.5 7.1-.5 7.1-.5l2.7 6.4c-.1 0-12.9 2.8-23.3 0z"/>
	  <path opacity=".3" fill="#6770A7" d="m401.7 214.9-2.6 6.4 2.7.6.8-.7c.3-.4.8-5.1.8-5.1l9.2-.7c-4.7-.3-10.9-.5-10.9-.5z"/>
	  <linearGradient id="SVGID_2_" gradientUnits="userSpaceOnUse" x1="367.6" y1="67.756" x2="435.6" y2="67.756" gradientTransform="matrix(1 0 0 -1 0 512)">
		<stop offset="0" style="stop-color:#fff"/>
		<stop offset="1" style="stop-color:#000"/>
	  </linearGradient>
	  <path opacity=".25" fill="url(#SVGID_2_)" d="M417.8 440.8h-3.9c-25.6 0-46.3 1.5-46.3 3.4s20.7 3.4 46.3 3.4c8.4 0 14.9.2 21.7 0-4.5-1.8-12.1-5.1-17.8-6.8z"/>
	  <linearGradient id="SVGID_3_" gradientUnits="userSpaceOnUse" x1="321.619" y1="58.1" x2="391.019" y2="58.1" gradientTransform="matrix(1 0 0 -1 0 512)">
		<stop offset="0" style="stop-color:#fff"/>
		<stop offset="1" style="stop-color:#000"/>
	  </linearGradient>
	  <path opacity=".25" fill="url(#SVGID_3_)" d="M371.9 447H368c-25.6 0-46.3 3.1-46.3 6.9s20.7 6.9 46.3 6.9c8.4 0 16.3-.3 23.1-.9-4.5-3.8-13.5-9.5-19.2-12.9z"/>
	  <path d="M419.4 440.4s-4 .5-8.5 0-1.5 3.1 3.7 4.4 6.1.7 8.7.9c2.7.2 12.7 3.4 13.5 1.1.8-2.2-4.7-6.5-4.7-6.5l-12.7.1zm-40.8 5.4s-3.4.4-9.2.8c-5 .3-4.8 4.5 18.4 12.9 3.6 1.3 6.7 0 7.6-2.9s-16.8-10.8-16.8-10.8z"/>
	  <path fill="#FF9489" d="M444.1 324s-.4 3.9 0 5.8c2.4 3.9 2.6 6 0 9.2s-2.8 5.1-4.6 5.8c-1.8.7-2.1 3.4-4.1 0s.7-24 .7-24l8 3.2z"/>
	  <path fill="#FF9489" d="m441.2 331.5.6-7.3-.1-1.2-5.6-2.2s-1.6 12.2-1.4 19.4c.6.8 1.3 1 1.7-.7 1-3.8 2-4.4 3.4-4-.4-1.8.4-4.7 1.4-4z"/>
	  <path fill="#6770A7" d="M441.8 229.1s6.5 50.9 6.6 70.7c.2 19.8 0 24.9 0 24.9s-8.6 1.7-13.7.9c-2.8-.7-3.6-17.4-3.6-17.4V235c.1.1 5.2-8.7 10.7-5.9z"/>
	  <path opacity=".5" fill="#6770A7" d="M441.8 229.1c-5.5-2.8-10.6 6-10.6 6v73.2s.7 15 3.1 17.2c11.3-2.4 7.3-12.3 7.4-16.8.1-4.9-3.6-51.6-1.9-65.3.6-4.1 2-14.3 2-14.3z"/>
	  <path fill="#B0AED4" d="M446.3 325.1c1.3-.2 2.1-.4 2.1-.4s.2-5.1 0-24.9-6.6-70.7-6.6-70.7 6 72 4.5 96z"/>
	  <path fill="#484599" d="M382.9 312.2s-3.1 12.3-2 25.8 3.4 36.5 2 46-5.3 54.2-4.2 62.6c2 6.7 9.5 10.4 13.8 11.8 4.2 1.4 5.1-9 4.8-24.4-.3-15.4 5.1-38.4 2.2-46.3 2.2-15.2 5.9-40.7 7.9-42.4 2-1.7 7.3-.6 7.3-.6s5.3 36.5 6.2 39.3c.8 2.8 2 7.9 2 7.9s-1.4 42.9-3.4 48.5c11.8 7 14.7 6.7 17.5 6.5 2.5-6.5 2.5-11.8 1.3-19.9 0-14.3-1.8-31.7-1.3-39s.6-30 0-38.4-.1-31.7-1.5-38.7c-1.6-7.1-52.6 1.3-52.6 1.3z"/>
	  <path opacity=".4" fill="#484599" d="m432.8 317.8 1.4-8.3c-7.6-4.5-51.4 2.7-51.4 2.7s-3.1 12.3-2 25.8 3.4 36.5 2 46-5.3 54.2-4.2 62.6c1.9 6.5 9.1 10.1 13.3 11.6-2.7-3-8.1-9-9-11.7-1.3-3.7 4.7-45.7 5.1-54.9.4-9.2 5.6-42.5 10.1-49.4s13.7-14 22.5-16.5c8.8-2.3 12.2-7.9 12.2-7.9z"/>
	  <path fill="#FF9489" d="M336.2 218.8s-2.1-8.9-2.4-10.3c-4.1-6.4-6.9-13.1-6.9-13.1s4.6-9.8 5.8-11c2.2-1.5 11.2-7.7 8.5-3.3-2.4 3.5-2.6 4.2-2.6 4.2s5.7-2.3 6-2-4.6 5-4.6 5 4.3-.1 4.6.9c.3 1-4.1 2.4-4.1 2.4v3.6s1.7.5.8 1.4c-.9.9-4.1 1.3-4.1 1.3s3.1 3.2 2 7.6c.7 3.7 1.7 9.4 1.7 9.4l-4.7 3.9z"/>
	  <path fill="#FF9489" d="M335.2 207.6c-3.9-6.5-7.1-11.9-7.3-12.3-.1-.3.2-1.8.6-3.1-.9 1.9-1.6 3.4-1.6 3.4s2.8 6.7 6.9 13.1c.4 1.4 2.4 10.3 2.4 10.3l4.2-3.5c-1.2-1.2-3.9-3.6-5.2-7.9zm1-17V182c-1.5.9-2.9 1.9-3.6 2.4-.2.2-.6.7-.9 1.4 0 .1-3 8.2 0 9.6 3 1.4 4.5-4.8 4.5-4.8z"/>
	  <path fill="#484599" d="M339.9 174.5c0-.2-.1-.4-.3-.5-.2-.1-.4-.2-.6-.1l-8 2.1c-.3.1-.6.4-.5.8l2.8 19.2c0 .2.1.4.3.5.1.1.3.1.4.1h.2l7.4-1.6c.4-.1.6-.4.6-.8l-2.3-19.7z"/>
	  <path fill="#FF9489" d="M333.3 199.4s3.2-7 4.3-9.1c1.1-2.1-2.5-.4-6.9 4.6-.7 2.9-.4 5.9 2.6 4.5z"/>
	  <path fill="#6770A7" d="m340.8 215-10.4 7.8s13.3 41.5 15.1 45.5c1.8 3.9 34.2-24 34.2-24s1.4 35.6 1.7 45.2c.3 9.5-2.8 27.2-2.8 27.2s30.2 4.3 37.9 5.2c7.7.8 23-5.6 23-5.6s-2.4-37-2.5-42.2-2.1-28.6 1-34.9c3.1-6.3 3.4-8.1 3.8-10 .4-1.8-21-10.3-21-10.3H400s-18.9 4-20.9 5.2-25.8 23.8-25.8 23.8-10.1-35.2-12.5-32.9z"/>
	  <path opacity=".3" fill="#6770A7" d="M400.7 275.3c-1.7-29.9-18.1-41-19.8-39.8-1.7 1.2-30.3 26.1-32.2 23.1-7.5-18.7-8.4-36.4-8.5-43.3l-9.9 7.4s13.3 41.5 15.1 45.5c1.8 3.9 34.2-24 34.2-24s1.4 35.6 1.7 45.2c.3 9.5-2.8 27.2-2.8 27.2s30.2 4.3 37.9 5.2c2.6.3 6.1-.3 9.5-1.1-6.9-4.2-23.7-19.5-25.2-45.4z"/>
	  <path fill="#B0AED4" d="M441.8 229.1c.4-1.8-21-10.3-21-10.3H417s14 5.6 23.5 14.5c.8-2 1.1-3.1 1.3-4.2zm-2.2 87.2s-2.4-37-2.5-42.2c0-1.2-.2-3.2-.3-5.8 0 14.5 0 31.4.1 37.6.2 11.4-.5 10.4-10.7 14.9 6.7-1.7 13.4-4.5 13.4-4.5zm-86-67.3 26-22.9 16.3-6.4c-5.7 1.2-15.4 3.5-16.8 4.3-2 1.2-25.8 23.8-25.8 23.8s-9.1-31.6-12.1-32.8h-.4s11.4 32.2 12.5 37.7c0-2.5.3-3.7.3-3.7z"/>
	  <path opacity=".5" fill="#6770A7" d="M402.6 320.1c-12.4-6-15.5-18-16.5-27.2-1.3-12.1-3.8-50.8-3.8-50.8l-2.5 2.2s1.4 35.6 1.7 45.2c.3 9.5-2.8 27.2-2.8 27.2s12.8 1.8 23.9 3.4z"/>
	  <path fill="#FFD4D2" d="M335.5 190.4c.3.7-.1 2-.5 3.3-.6 1.8-1.7 5.7-1.7 5.7s3.2-7 4.3-9.1c.8-1.3-.3-1.2-2.1.1z"/>
	  <path opacity=".4" fill="#B0AED4" d="M396.6 387.2c-1.7 19.5-3.9 41.2-3.9 49.2 0 6.4 2 15.9.2 22.1 3.8.5 4.6-9.6 4.3-24.5-.3-15.4 5.1-38.4 2.2-46.3 1.1-7.7 2.6-18.1 4.1-26.7-2.7 11.2-6 24.6-6.9 26.2zm41.6 39.8c0-14.3-1.8-31.7-1.3-39s.6-30 0-38.4c-.4-5.9-.3-19-.7-28.8 0 0-1.4 20.4-1.9 26.4-.6 6-1.3 39.8-1.4 42.5s-1 27.1 0 33.9c.8 5.2 2.8 16.8-.7 23.1 2.2.6 3.5.4 4.7.3 2.4-6.6 2.4-11.9 1.3-20z"/>
	  <path opacity=".4" fill="#484599" d="M422.7 391.9s-1.4 42.9-3.4 48.5c6.4 3.8 10.1 5.4 12.7 6.1-2.8-2.1-4-8.8-4.4-13-.4-4.5-1.3-37.8-1.6-41.5-.3-3.7-5.5-22.8-6.1-28.8s-5.4-18.5-5.4-18.5 5.3 36.5 6.2 39.3c.9 2.8 2 7.9 2 7.9z"/>
	  <path fill="#FFD4D2" d="M443.1 330.7c.5 1.1 2.2 3.7.5 6.5s-1.7 4.5-3 6.8c1-1 1.6-2.6 3.6-5.1 2.6-3.2 2.4-5.2 0-9.2-.1.1-1.6-.1-1.1 1z"/>
	  <path fill="#202336" d="M417 204.6s7.9-9 9.1-14.4-3.5-12.2-6.1-14.8-5.6-6.6-9.3-6.6c-1.4 0 0 3.9 0 3.9s-4.5-2.8-1.8 3.3c-5.1-.8-3.8 2-2.5 3.6-.7 4.3-1.9 10.7-1.5 14.8 2-3.7 6.9-4.3 1.5 4.8 3 6 7.5 8.6 7.5 8.6l3.1-3.2z"/>
	  <path opacity=".5" fill="#FF9489" d="M399.1 202.4c-.8-2.2 0-7.8 0-7.8s-2.1 5.9-1.3 8.2c.7 2.2 6.9 6.7 6.9 6.7l.6-3.8c-.1-.1-5.4-1.2-6.2-3.3z"/>
	</g>
	<g id="women">
	  <path fill="#484599" d="M163.1 206.2c.1-.2.2-.4.4-.5s.5-.1.7 0l8.6 3.6c.4.2.6.6.5 1l-6 20.9c-.1.2-.2.4-.4.5-.1.1-.3.1-.5.1h-.2l-8-2.9c-.4-.1-.6-.5-.5-.9l5.4-21.8z"/>
	  <linearGradient id="SVGID_4_" gradientUnits="userSpaceOnUse" x1="78.9" y1="56.018" x2="135.4" y2="56.018" gradientTransform="matrix(1 0 0 -1 0 512)">
		<stop offset="0" style="stop-color:#fff"/>
		<stop offset="1" style="stop-color:#000"/>
	  </linearGradient>
	  <path opacity=".25" fill="url(#SVGID_4_)" d="M131.4 454c-3.9-.5-13.6-1.9-10.7-2.3 2.6-.4 7.4-.6 10.1-.8-.2-.6-.3-1.2-.6-1.8-1.3 0-16.5.5-17.8.5-10 .2-33.5 2.8-33.5 6.6s21.5 5.4 36.4 6.3c8.4.5 13.4.5 20.1-.1-2.7-2.2-3.4-5.4-4-8.4z"/>
	  <linearGradient id="SVGID_5_" gradientUnits="userSpaceOnUse" x1="26.9" y1="55.676" x2="78.1" y2="55.676" gradientTransform="matrix(1 0 0 -1 0 512)">
		<stop offset="0" style="stop-color:#fff"/>
		<stop offset="1" style="stop-color:#000"/>
	  </linearGradient>
	  <path opacity=".25" fill="url(#SVGID_5_)" d="M68.2 457.6c-3.9-.5-3.2-1.1-.2-1.5 2.6-.4 7.4-.6 10.1-.8-.2-.6-.3-1.2-.6-1.8-1.3 0-7.9-.8-9.2-.8-3.1 0-41.4.1-41.4 3.9 0 3.9 28.8 4.6 41.3 1z"/>
	  <path fill="#222221" d="M69.6 444.1c-3.1 3.9-6.5 9.1-16.3 13-2.5 2.5 3.5 2 7.2 1.8 3.7-.1 10.6-2 12-3.2 1.4-1.3 2.4-8.7 3.2-9.5.7 6 .8 9.1.8 9.1l1.4-.1s.7-8.3 1.3-10.9c.6-2.7.1-5.3-1.1-7.3s-3.3.6-8.5 7.1z"/>
	  <path fill="#FF9489" d="M80.3 383.7s-3 23.4-3.6 29c-.7 5.6-2.8 17.6-4.5 23.4-2.2 9.4-8.3 13.1-7.4 14.8 1.7 2.9 5.1-2.1 7.4-4.7 2.5-2.7 4.2-4 5.8-4.9 1.6-.9.9-4.7.9-4.7s4.8-16.5 6.4-20.4 12-20.8 9.3-30.7c2.7-11.8 3-14.4 3-14.4s-14.3-2-17.3 12.6z"/>
	  <path fill="#FF9489" d="m95.7 377.7-1.9-6.5c-4.5.5-11.5 2.8-13.5 12.5 0 0-3 23.4-3.6 29-.7 5.6-2.8 17.6-4.5 23.4-2.2 9.4-8.3 13.1-7.4 14.8 1.4 2.4 4.1-.7 6.3-3.3.6-3.3 2.7-7.6 3.2-9.1.8-2.5 5.4-37.2 7.8-44.9 2.4-7.6 13.6-15.9 13.6-15.9z"/>
	  <path fill="#222221" d="M130.7 440.7s-7.8 8.8 3.5 21.3c1.2 1 1.4 1.2 3.3-3.1 2.9-6.6.1-19.4-2-21.5s-4.8 3.3-4.8 3.3z"/>
	  <path fill="#FF9489" d="M124.1 374s-2.3 7.7-1 11.4c1.3 3.6 7.1 47.3 7 52.7-1.7 5.8-.3 15.2 3.7 15.6s5-9.7 2.8-16.4c-.5-15-.6-34.1 0-41.3s1.1-18.1-1-22.8c-2.1-4.7-7.2-7.2-7.2-7.2s-4.6 6.5-4.3 8z"/>
	  <path fill="#FF9489" d="M123.1 385.4c1.3 3.6 7.1 47.3 7 52.7-1.7 5.8-.3 15.2 3.7 15.6.5 0 1-.1 1.4-.3-4.8-3.4-3.5-13-4.1-16.5-.7-4.4-4.7-43.7-4.9-49.9-.2-6.2 8.6-15 8.6-15v-.6c-2.4-3.6-6.3-5.6-6.3-5.6s-4.6 6.6-4.3 8.1c-.1.1-2.4 7.9-1.1 11.5z"/>
	  <path fill="#202336" d="M98 266.6c-10.1.1-16.2-11.3-18.6-19.7-2.6-9.4.3-18.5 6-26.2s2.5-13.8 4.4-24.3 7.8-15.3 15.3-15.7 16.7 6.6 18 18.2c1.4 11.6 4.1 16.5 9.1 23.1 6.6 8.7 16.5 44.2-34.2 44.6z"/>
	  <path fill="#484599" d="M91.7 296s-11.2 52.2-12.3 87.7c25.8-4.1 56.7-10.1 56.7-10.1s1.7-24.9 1.5-43.4c0-5.8-.8-38-5.4-41.9-11.2 2.4-40.5 7.7-40.5 7.7z"/>
	  <path opacity=".4" fill="#B0AED4" d="M124.5 375.8c7-1.3 11.6-2.2 11.6-2.2s1.7-24.9 1.5-43.4c0-5.8-.8-38-5.4-41.9-.5.1-.9.2-1.5.3 1.4 8.3 5.2 34.7 2.5 70.4-1 7.4-5 13.7-8.7 16.8z"/>
	  <path opacity=".4" fill="#484599" d="M100.6 346.2c4.9-18.5 16.3-50.9 26.9-55.2l-3.4-1c-13.3 2.6-32.4 6-32.4 6s-11.2 52.2-12.3 87.7c11.8-1.9 24.7-4.2 35.2-6.1-6.5-5.9-17.5-18.2-14-31.4z"/>
	  <path fill="#FF9489" d="M139.6 246.2s6.3 10.1 8.1 14.2c4.3-6.4 11.4-22.3 12.9-24.6-.1-3.8 0-7.3 0-7.3s-2.8-5.8-2.7-7c.1-1.3 4.5 4.9 4.5 4.9s-2.1-8.1-1.1-9.4 4.3 8.4 4.3 8.4-1-11.9 0-12.5 3.1 11.6 3.4 16.4c.3 4.8-5.2 9.1-5.3 10-2.9 10.8-10.9 30.7-15 36.5-1.8 2.5-16.4-23.2-16.4-23.2s1.5-4.2 7.3-6.4z"/>
	  <path fill="#FF9489" d="M137.8 247c-4.3 2.3-5.5 5.6-5.5 5.6s12 21.1 15.6 23.2c-4.8-6.9-9.2-22.6-10.1-28.8zm-59.3 11s-1.3-6.5-7.7-9.5c-7.9 11-14.8 25.2-15.2 27.5s32 18.5 32 18.5-2 6.5-2 8.5c0 2.1 1 12.8 2 13.8.9.9 2.2-9.7 2.2-9.7s1.4 4.2 2.7 4.4c1.3.2-1.6-11.4-1.6-11.4s1.6-5.2 1.6-8.3-23.4-18.7-24.5-19.4c4.1-5.8 10.5-14.4 10.5-14.4z"/>
	  <path fill="#FF9489" d="M89.8 293.6s-16.3-9.3-31.3-18.9c6-14.6 14.6-21.8 17.9-21.4-1.2-1.7-2.9-3.6-5.5-4.8-7.9 11-14.8 25.2-15.2 27.5s32 18.5 32 18.5-2 6.5-2 8.5c0 2.1 1 12.8 2 13.8.9.9 2.2-9.7 2.2-9.7s-2-3.9-2.2-5.7c-.2-1.9 2.1-7.8 2.1-7.8z"/>
	  <path fill="#6770A7" d="M95.2 228.6s-12.6 4.3-13.9 5.1c-1.3.7-10.5 14.8-10.5 14.8s4.3 2.8 7.7 9.5c4.5-5.6 6.7-8.6 6.7-8.6s7.3 19.5 10 25.3c-2 11.8-2.2 15.6-3.3 21.4 12.6 2.4 34.3-3.6 40.3-7.7-2.7-9.9-5.5-17.2-5.3-20s1.7-21.1 1.7-21.1l3.6 5.5s3.1-5.2 7.3-6.5c-2.3-9.3-7.8-17.5-8.5-19.4s-16 .2-16 .2l-19.8 1.5z"/>
	  <path fill="#B0AED4" d="M134.9 249.3c1.2-1.3 2.9-2.6 4.7-3.1-2.3-9.3-7.8-17.5-8.5-19.4s-16 .2-16 .2l-10.5.9 1.4 16.6s8.7-6.5 11.8-16c7.3-.8 10.9 0 10.9 0s7.8 11.3 6.2 20.8z"/>
	  <path fill="#FF9489" d="M102.2 215.8s1.3 7.7-1.1 10c-4.1 2.1-5.9 2.8-5.9 2.8s3.6 8.4 10.7 15.9c7-7.4 9.1-17.5 9.1-17.5s-3.8.1-5.3-.6-.6-10.5-.6-10.5l-6.9-.1z"/>
	  <path fill="#FF9489" d="M105.2 226.4c-.1-3.4 1.5-6.2 3.7-7.8.1-1.5.2-2.7.2-2.7h-6.9s1.3 7.7-1.1 10c-4.1 2.1-5.9 2.8-5.9 2.8s3.6 8.4 10.7 15.9c.4-.4.7-.8 1-1.2-10-13.2-6.1-13.2-1.7-17z"/>
	  <path fill="#FF9489" d="M95.3 197.6s.7 6.4.9 7.7c-2.1-1.9-3.4-.2-2.2 1.9 1.1 2.1 3.7 5.1 3.7 5.1s4.1 8.6 8.8 8.6 9-6 10.3-21.7c-3.4-2.1-5.8-5.1-5.8-5.1s-4.5 5.4-8.6 2.1c-4.1-3.5-7.5-2.3-7.1 1.4zm65.9 40.3c1-1.8-.6-9.4-.6-9.4s-.1 3.5 0 7.3c-1.5 2.2-8.6 18.1-12.9 24.6l1.3 2.4c0-.1 11.2-23.1 12.2-24.9z"/>
	  <path fill="#FFD4D2" d="M65.2 272.5s21.7 13.3 27.3 20.1v-1c0-3.2-23.4-18.5-24.5-19.3 4.1-5.8 10.5-14.4 10.5-14.4l-13.3 14.6zM169 229.3c-.3-4.3-2-14.5-3-16.2.9 4.5 2.5 14 1.6 16.2-1.1 2.9-.7 4.1-4.6 9-1.7 8-14.3 37.5-14.3 37.5 4.1-5.8 12.1-25.7 15-36.5.1-.9 5.6-5.2 5.3-10zm-57.8-13.5c-1.8 3.5-4.7 4.9-7.9 3.7 1 .7 2.1 1.2 3.2 1.2 4.7 0 9-6 10.3-21.7-.9-.6-1.7-1.2-2.5-1.8.1 9.3-1.6 15.8-3.1 18.6z"/>
	  <path opacity=".3" fill="#6770A7" d="M101 274.1c-2.1-3.6-11.2-31.3-11.2-33.3s5.6-7.7 8.7-8.8l2.6-1.8-3.6-1s-11.8 3.6-14.9 6.5c-2 1.8-6.5 9.3-9.6 14.6 1.5 1.5 3.7 4 5.5 7.7 4.5-5.6 6.7-8.6 6.7-8.6s7.3 19.5 10 25.3c-2 11.8-2.2 15.6-3.3 21.4 6.6 1.3 15.7.2 23.7-1.7-13.5-2.3-12.8-17.2-14.6-20.3z"/>
	  <path fill="#B0AED4" d="m128.6 247.1-4.3 22s3.6 13.5 4.3 15.7c.7 2.2-1.9 4.7-10.6 8.9 6.3-1.6 11.7-3.7 14.3-5.5-2.7-9.9-5.5-17.2-5.3-20 .1-2.7 1.6-21.1 1.6-21.1z"/>
	</g>

	<style>
		#redline {
			transform-origin: 50%;
			animation: redline 2s infinite linear;
			mix-blend-mode: screen;
		}

		#man {
			transform-origin: 50%;
			transform: translateX(-50px) scale(.9);
			animation: move-right 4s forwards ease-out;
		}

		#women {
			transform-origin: 50%;
			transform: translateX(50px) scale(.9);
			animation: move-left 4s forwards ease-out;
		}

		@keyframes move-left {
			0% {
				transform: translateX(50px) scale(.9);
			}
			100% {
				transform: translateX(0) scale(1.1);
			}
		}

		@keyframes move-right {
			0% {
				transform: translateX(-50px) scale(.9);
			}
			100% {
				transform: translateX(0) scale(1.1);
			}
		}

		@keyframes redline {
			0% {
				transform: translateY(0) scaleX(0);
				animation-timing-function: ease-in;
			}
			20% {
				transform: translateY(0) scaleX(1);
				animation-timing-function: linear;
			}
			70% {
				transform: translateY(128.64px) scaleX(1);
				animation-timing-function: ease-out;
			}
			90% {
				transform: translateY(128.64px) scaleX(0);
			}
			100% {
				transform: translateY(128.64px) scaleX(0);
			}
		}
	</style>

</svg>