<svg xmlns="http://www.w3.org/2000/svg" viewBox="0 0 500 500" xml:space="preserve">
	<path fill="#F0F0F0" d="M257 67.2v5.2c0 1.6 1.1 2.3 2.6 1.5l23.8-13.7c1.5-1 2.5-2.6 2.6-4.4v-5.2c0-1.6-1.1-2.3-2.6-1.5l-23.8 13.7c-1.5.9-2.5 2.5-2.6 4.4zm202.6 123.1-20.9 12.1c-1.5 1-2.5 2.6-2.6 4.4v5.2c0 1.6 1.1 2.3 2.6 1.5l20.9-12.1v-11.1zm-5 27.7 5-2.9v-11.2l-5 2.9c-1.5 1-2.5 2.6-2.6 4.4v5.2c0 1.7 1.2 2.4 2.6 1.6zm-380.2-5.1-23.8 13.7c-.3.2-.6.4-.9.7V238c.3 0 .6-.2.9-.3L74.4 224c1.5-1 2.5-2.6 2.6-4.4v-5.2c0-1.7-1.2-2.3-2.6-1.5zm-.2 111.8-23.8 13.7c-.2.1-.5.3-.7.5v10.9c.2-.1.5-.1.7-.3l23.8-13.7c1.5-1 2.5-2.6 2.6-4.5v-5.2c0-1.5-1.2-2.2-2.6-1.4zm.2-57.1-23.8 13.7c-.3.2-.6.4-.9.7v10.7c.3 0 .6-.2.9-.3l23.8-13.7c1.5-1 2.5-2.6 2.6-4.5V269c0-1.6-1.2-2.2-2.6-1.4zM338 87.4l-23.8 13.7c-1.5 1-2.5 2.6-2.6 4.4v5.2c0 1.6 1.1 2.3 2.6 1.5L338 98.5c1.5-1 2.5-2.6 2.6-4.4v-5.2c-.1-1.7-1.2-2.3-2.6-1.5zm15-22.3-23.8 13.7c-1.5 1-2.5 2.6-2.6 4.4v5.2c0 1.6 1.1 2.3 2.6 1.5L353 76.2c1.5-1 2.5-2.6 2.6-4.4v-5.2c-.1-1.7-1.2-2.3-2.6-1.5zM183.2 231.3 159.4 245c-1.5 1-2.5 2.6-2.6 4.4v5.2c0 1.6 1.1 2.3 2.6 1.5l23.8-13.7c1.5-1 2.5-2.6 2.6-4.4v-5.2c0-1.7-1.2-2.4-2.6-1.5zm66.5-62.7v5.2c0 1.6 1.1 2.3 2.6 1.5l23.8-13.7c1.5-1 2.5-2.6 2.6-4.4V152c0-1.6-1.1-2.3-2.6-1.5l-23.8 13.7c-1.6.9-2.5 2.6-2.6 4.4zm-31-21.5v5.2c0 1.6 1.1 2.3 2.6 1.5l23.8-13.7c1.5-1 2.5-2.6 2.6-4.4v-5.2c0-1.6-1.1-2.3-2.6-1.5l-23.8 13.7c-1.5.9-2.5 2.5-2.6 4.4zm72.4-73.7-23.8 13.7c-1.5 1-2.5 2.6-2.6 4.5v5.2c0 1.6 1.1 2.3 2.6 1.5l23.8-13.7c1.5-1 2.5-2.6 2.6-4.4V75c-.1-1.7-1.2-2.4-2.6-1.6zm-123.8 98.7-23.8 13.7c-1.5 1-2.5 2.6-2.6 4.4v5.2c0 1.6 1.1 2.3 2.6 1.5l23.8-13.7c1.5-1 2.5-2.6 2.6-4.4v-5.2c-.1-1.6-1.2-2.3-2.6-1.5zm85 57.9 23.8-13.8c1.5-1 2.5-2.6 2.6-4.5v-5.2c0-1.6-1.1-2.3-2.6-1.5l-23.8 13.7c-1.5 1-2.5 2.6-2.6 4.4v5.2c0 1.8 1.1 2.5 2.6 1.7zM81.6 287.4l23.8-13.7c1.5-1 2.5-2.6 2.6-4.5V264c0-1.6-1.2-2.3-2.6-1.5l-23.8 13.7c-1.5 1-2.5 2.6-2.6 4.5v5.2c0 1.6 1.2 2.3 2.6 1.5zm354.5-148v5.2c0 1.6 1.1 2.3 2.6 1.5l20.9-12.1v-11.2l-20.9 12.1c-1.6 1-2.5 2.7-2.6 4.5zM221.3 357.2l23.8-13.7c1.5-1 2.5-2.6 2.6-4.5v-5.2c0-1.6-1.1-2.3-2.6-1.5L221.3 346c-1.5 1-2.5 2.6-2.6 4.5v5.2c0 1.7 1.2 2.3 2.6 1.5zM323.9 301l23.8-13.7c1.5-1 2.5-2.6 2.6-4.5v-5.2c0-1.6-1.1-2.3-2.6-1.5l-23.8 13.7c-1.5 1-2.5 2.6-2.6 4.5v5.2c0 1.6 1.2 2.3 2.6 1.5zM452.3 60.4v-5.2c0-1.6-1.1-2.3-2.6-1.5l-23.8 13.7c-1.5 1-2.5 2.6-2.6 4.5v5.2c0 1.6 1.1 2.3 2.6 1.5l23.8-13.7c1.5-1 2.5-2.7 2.6-4.5zM107.9 405.9v-5.2c0-1.6-1.2-2.3-2.6-1.5L81.6 413c-1.5 1-2.5 2.6-2.6 4.4v5.2c0 1.6 1.2 2.3 2.6 1.5l23.8-13.7c1.5-1 2.4-2.7 2.5-4.5zM156.8 58v5.2c0 1.6 1.1 2.3 2.6 1.5L183.2 51c1.5-1 2.5-2.6 2.6-4.5v-5.2c0-1.6-1.1-2.3-2.6-1.5l-23.8 13.7c-1.5 1-2.5 2.7-2.6 4.5zm302.8 105.4-20.9 12.1c-1.5 1-2.5 2.6-2.6 4.4v5.2c0 1.6 1.1 2.3 2.6 1.5l20.9-12.1v-11.1zM59.4 247.9l-9.7 5.6v11.1l9.7-5.6c1.5-1 2.5-2.6 2.6-4.4v-5.2c0-1.6-1.2-2.3-2.6-1.5zm38.1 153.3 23.8-13.7c1.5-1 2.5-2.6 2.6-4.5v-5.2c0-1.6-1.2-2.3-2.6-1.5L97.5 390c-1.5 1-2.5 2.6-2.6 4.5v5.2c0 1.7 1.2 2.3 2.6 1.5zm-23.1-38.8-23.8 13.7c-.3.2-.6.4-.9.7v10.7c.3 0 .6-.2.9-.3l23.8-13.7c1.5-1 2.5-2.6 2.6-4.4v-5.2c0-1.7-1.2-2.3-2.6-1.5zM187.8 79.9v5.2c0 1.6 1.1 2.3 2.6 1.5l23.8-13.7c1.5-1 2.5-2.6 2.6-4.4v-5.2c0-1.6-1.1-2.3-2.6-1.5l-23.8 13.7c-1.6 1-2.5 2.6-2.6 4.4zm-128.4 86-9.7 5.6v11.1l9.7-5.6c1.5-1 2.5-2.6 2.6-4.4v-5.2c0-1.7-1.2-2.3-2.6-1.5zm46-40.1-23.8 13.7c-1.5 1-2.5 2.7-2.6 4.5v5.2c0 1.6 1.2 2.3 2.6 1.5l23.8-13.7c1.5-1 2.5-2.6 2.6-4.4v-5.2c-.1-1.8-1.2-2.4-2.6-1.6zm61.9-63.1-23.8 13.7c-1.5 1-2.5 2.6-2.6 4.4V86c0 1.6 1.1 2.3 2.6 1.5l23.8-13.7c1.5-1 2.5-2.6 2.6-4.4v-5.2c-.1-1.6-1.2-2.3-2.6-1.5zm-7.9 302.8 23.8-13.7c1.5-1 2.5-2.6 2.6-4.5v-5.2c0-1.6-1.1-2.3-2.6-1.5l-23.8 13.7c-1.5 1-2.5 2.6-2.6 4.5v5.2c0 1.7 1.2 2.4 2.6 1.5zm41.4-40.4v-5.2c0-1.6-1.1-2.3-2.6-1.5l-23.8 13.7c-1.5 1-2.5 2.6-2.6 4.5v5.2c0 1.6 1.2 2.3 2.6 1.5l23.8-13.7c1.5-1.1 2.5-2.7 2.6-4.5zm-33.5-180.3-23.8 13.7c-1.5 1-2.5 2.7-2.6 4.5v5.2c0 1.6 1.1 2.3 2.6 1.5l23.8-13.7c1.5-1 2.5-2.6 2.6-4.5v-5.2c-.1-1.7-1.2-2.3-2.6-1.5zm30.9-60.1-23.8 13.7c-1.5 1-2.5 2.6-2.6 4.4v5.2c0 1.6 1.2 2.3 2.6 1.5l23.8-13.7c1.5-1 2.5-2.6 2.6-4.5v-5.2c0-1.6-1.2-2.3-2.6-1.4zM94.9 257.8v5.2c0 1.6 1.2 2.3 2.6 1.5l23.8-13.7c1.5-1 2.5-2.6 2.6-4.4v-5.2c0-1.6-1.2-2.3-2.6-1.5l-23.8 13.7c-1.5.9-2.5 2.6-2.6 4.4zm332.3-137.7 23.8-13.7c1.5-1 2.5-2.6 2.6-4.4v-5.2c0-1.6-1.1-2.3-2.6-1.5L427.2 109c-1.5 1-2.5 2.6-2.6 4.4v5.2c.1 1.7 1.2 2.4 2.6 1.5zM97.5 373.9l23.8-13.7c1.5-1 2.5-2.6 2.6-4.5v-5.2c0-1.6-1.2-2.3-2.6-1.5l-23.8 13.7c-1.5 1-2.5 2.6-2.6 4.5v5.2c0 1.6 1.2 2.3 2.6 1.5zm54.7-97.4-23.8 13.7c-1.5 1-2.5 2.6-2.6 4.5v5.2c0 1.6 1.2 2.3 2.6 1.5l23.8-13.7c1.5-1 2.5-2.6 2.6-4.5V278c0-1.7-1.1-2.4-2.6-1.5zm35.6-72.2v5.2c0 1.6 1.1 2.3 2.6 1.5l23.8-13.7c1.5-1 2.5-2.6 2.6-4.4v-5.2c0-1.6-1.1-2.3-2.6-1.5l-23.8 13.7c-1.6.9-2.5 2.6-2.6 4.4zM326 127.1v5.2c0 1.6 1.1 2.3 2.6 1.5l23.8-13.7c1.5-1 2.5-2.6 2.6-4.5v-5.2c0-1.6-1.1-2.3-2.6-1.5l-23.8 13.7c-1.5 1-2.4 2.7-2.6 4.5zm61.5-84.4v5.2c0 1.6 1.1 2.3 2.6 1.5l23.8-13.7c1.5-1 2.5-2.6 2.6-4.5V26c0-1.6-1.1-2.3-2.6-1.5L390 38.2c-1.5 1-2.4 2.7-2.5 4.5zm-57.3 125.8v-5.2c0-1.6-1.1-2.3-2.6-1.5l-23.8 13.7c-1.5 1-2.5 2.6-2.6 4.4v5.2c0 1.6 1.1 2.3 2.6 1.5l23.8-13.7c1.6-1 2.5-2.6 2.6-4.4zm31-17.9v-5.2c0-1.6-1.1-2.3-2.6-1.5l-23.8 13.7c-1.5 1-2.5 2.6-2.6 4.4v5.2c0 1.6 1.1 2.3 2.6 1.5l23.8-13.7c1.5-.9 2.5-2.6 2.6-4.4zm-101.1-16.7-23.8 13.7c-1.5 1-2.5 2.6-2.6 4.4v5.2c0 1.6 1.1 2.3 2.6 1.5l23.8-13.7c1.5-1 2.5-2.6 2.6-4.4v-5.2c0-1.6-1.2-2.3-2.6-1.5zM200.8 243v-5.2c0-1.6-1.1-2.3-2.6-1.5L174.4 250c-1.5 1-2.5 2.6-2.6 4.4v5.2c0 1.6 1.2 2.3 2.6 1.5l23.8-13.7c1.5-.9 2.5-2.6 2.6-4.4zm205.3-25.5 23.8-13.7c1.5-1 2.5-2.6 2.6-4.4v-5.2c0-1.6-1.2-2.3-2.6-1.5l-23.8 13.7c-1.5 1-2.5 2.6-2.6 4.4v5.2c0 1.7 1.2 2.3 2.6 1.5zm10.4 8.9-23.8 13.7c-1.5 1-2.5 2.6-2.6 4.4v5.2c0 1.6 1.1 2.3 2.6 1.5l23.8-13.7c1.5-1 2.5-2.6 2.6-4.4v-5.2c-.1-1.6-1.2-2.3-2.6-1.5zM249.7 281v-5.2c0-1.6-1.1-2.3-2.6-1.5L223.3 288c-1.5 1-2.5 2.6-2.6 4.5v5.2c0 1.6 1.1 2.3 2.6 1.5l23.8-13.7c1.5-1 2.5-2.6 2.6-4.5zm-18 80.9v-5.2c0-1.6-1.1-2.3-2.6-1.5L205.4 369c-1.5 1-2.5 2.6-2.6 4.5v5.2c0 1.6 1.1 2.3 2.6 1.5l23.8-13.7c1.5-1.1 2.5-2.8 2.5-4.6zm-105.8-286v5.2c0 1.6 1.2 2.3 2.6 1.5l23.8-13.7c1.5-1 2.5-2.6 2.6-4.4v-5.2c0-1.6-1.1-2.3-2.6-1.5l-23.8 13.7c-1.6.9-2.5 2.5-2.6 4.4zm43.9 321.7v-5.2c0-1.6-1.1-2.3-2.6-1.5l-23.8 13.7c-1.5 1-2.5 2.6-2.6 4.5v5.2c0 1.6 1.1 2.3 2.6 1.5l23.8-13.7c1.6-1 2.5-2.7 2.6-4.5zM59.4 439.4l-9.7 5.6v11.1l9.7-5.6c1.5-1 2.5-2.7 2.6-4.5v-5.2c0-1.6-1.2-2.3-2.6-1.4zm15-268.4-23.8 13.7c-.3.2-.6.4-.9.7v10.7c.3 0 .6-.2.9-.3l23.8-13.7c1.5-1 2.5-2.6 2.6-4.5v-5.2c0-1.6-1.2-2.3-2.6-1.4zm116 176.7 23.8-13.7c1.5-1 2.5-2.6 2.6-4.5v-5.2c0-1.6-1.1-2.3-2.6-1.5l-23.8 13.7c-1.5 1-2.5 2.6-2.6 4.5v5.2c0 1.6 1.1 2.3 2.6 1.5zm257-204.2-23.8 13.7c-1.5 1-2.5 2.6-2.6 4.4v5.2c0 1.6 1.1 2.3 2.6 1.5l23.8-13.7c1.5-1 2.5-2.6 2.6-4.4V145c0-1.7-1.2-2.3-2.6-1.5zM229.2 66.8l-23.8 13.7c-1.5 1-2.5 2.6-2.6 4.4v5.2c0 1.6 1.1 2.3 2.6 1.5L229.2 78c1.5-1 2.5-2.6 2.6-4.5v-5.2c-.1-1.6-1.2-2.3-2.6-1.5zm116.1-32.9-23.8 13.7c-1.5 1-2.5 2.6-2.6 4.5v5.2c0 1.6 1.1 2.3 2.6 1.5L345.3 45c1.5-1 2.5-2.6 2.6-4.5v-5.2c0-1.6-1.2-2.3-2.6-1.4zM112.5 214.8l23.8-13.7c1.5-1 2.5-2.6 2.6-4.4v-5.2c0-1.6-1.1-2.3-2.6-1.5l-23.8 13.7c-1.5 1-2.5 2.6-2.6 4.4v5.2c.1 1.7 1.2 2.4 2.6 1.5zm119.2 65.1v-5.2c0-1.6-1.1-2.3-2.6-1.5l-23.8 13.7c-1.5 1-2.5 2.6-2.6 4.5v5.2c0 1.6 1.1 2.3 2.6 1.5l23.8-13.7c1.6-1.1 2.5-2.7 2.6-4.5zm44.8 24.5 23.8-13.7c1.5-1 2.5-2.6 2.6-4.5V281c0-1.6-1.1-2.3-2.6-1.5l-23.8 13.7c-1.5 1-2.5 2.6-2.6 4.5v5.2c.1 1.6 1.2 2.3 2.6 1.5zm41.4-40.5v-5.2c0-1.6-1.1-2.3-2.6-1.5L291.6 271c-1.5 1-2.5 2.6-2.6 4.5v5.2c0 1.6 1.1 2.3 2.6 1.5l23.8-13.7c1.5-1.1 2.4-2.8 2.5-4.6zm36.8-42.9v-5.2c0-1.6-1.1-2.3-2.6-1.5L328.3 228c-1.5 1-2.5 2.6-2.6 4.4v5.2c0 1.6 1.1 2.3 2.6 1.5l23.8-13.7c1.5-.9 2.5-2.6 2.6-4.4zm-47.2 65.5 23.8-13.7c1.5-1 2.5-2.6 2.6-4.5v-5.2c0-1.6-1.2-2.3-2.6-1.5l-23.8 13.7c-1.5 1-2.5 2.6-2.6 4.5v5.2c0 1.7 1.2 2.4 2.6 1.5zm29.2-66.7v-5.2c0-1.6-1.1-2.3-2.6-1.5l-23.8 13.7c-1.5 1-2.5 2.6-2.6 4.4v5.2c0 1.6 1.1 2.3 2.6 1.5l23.8-13.7c1.6-.9 2.5-2.6 2.6-4.4zm-16.9-28.7 23.8-13.7c1.5-1 2.5-2.6 2.6-4.4v-5.2c0-1.6-1.2-2.3-2.6-1.5L319.8 180c-1.5 1-2.5 2.6-2.6 4.4v5.2c0 1.6 1.2 2.3 2.6 1.5zm-57.1 16.2v-5.2c0-1.6-1.1-2.3-2.6-1.5l-23.8 13.7c-1.5 1-2.5 2.6-2.6 4.4v5.2c0 1.6 1.1 2.3 2.6 1.5l23.8-13.7c1.5-.9 2.5-2.6 2.6-4.4zm-204.4 113-8.5 4.9v11.1l8.5-4.9c1.5-1 2.5-2.6 2.6-4.4v-5.2c-.1-1.7-1.2-2.3-2.6-1.5zm17.2 73.1-23.8 13.7c-.9.6-1.6 1.4-2 2.3v8.8c.6.5 1.4.5 2 0l23.8-13.7c1.5-1 2.5-2.6 2.6-4.5v-5.2c0-1.5-1.1-2.2-2.6-1.4zm19.4-245v5.2c0 1.6 1.2 2.3 2.6 1.5l23.8-13.7c1.5-1 2.5-2.6 2.6-4.4v-5.2c0-1.6-1.2-2.3-2.6-1.5L97.5 144c-1.5.9-2.5 2.6-2.6 4.4zm364.7 69.2-20.9 12.1c-1.5 1-2.5 2.6-2.6 4.4v5.2c0 1.6 1.1 2.3 2.6 1.5l20.9-12.1v-11.1z"/>
	<path fill="none" d="m51.8 473 407.6-235.3"/>
	<path fill="#E0E0E0" d="M51.8 473.6c-.2 0-.4-.1-.5-.3-.1-.3-.1-.6.2-.7l407.6-235.3c.3-.1.6-.1.7.2.1.3.1.6-.2.7L52.1 473.5c-.1 0-.2.1-.3.1zM343.9 466.8c26.7 15.4 69.9 15.4 96.5 0s26.7-40.3 0-55.7-69.9-15.4-96.5 0-26.6 40.3 0 55.7z"/>
	<path opacity=".1" d="M255.3 39.6c0-.2 0-.3-.1-.4s0-.2-.1-.3v-.1c0-.1 0-.1-.1-.2v-.1c0-.1-.1-.1-.1-.2-.1-.2-.2-.3-.3-.4 0-.1-.1-.1-.1-.2s-.1-.1-.2-.2-.2-.1-.3-.2l-.2-.1c-1-.4-2.1-.2-2.9.4l-149.5 86.2c-1.3.8-2.4 1.9-3.1 3.3l-.3.6c-.1.2-.2.3-.2.4-.1.2-.2.4-.2.6-.1.2-.1.4-.2.6s-.1.3-.1.4v.1c0 .1-.1.3-.1.4v265.2c0 .1 0 .3.1.4l.1.2c0 .1.1.2.1.3.1.3.3.6.5.8l.2.2.1.1.2.1c.2.1.4.2.6.2h.5c.7 0 1.4-.2 2-.6L251 310.7c2.6-1.7 4.2-4.5 4.4-7.5v-263c-.1-.3-.1-.5-.1-.6z"/>
	<path fill="#37474F" d="M264.7 44.9c0-.2 0-.3-.1-.4s0-.2-.1-.3v-.1c0-.1 0-.1-.1-.2v-.1c0-.1-.1-.1-.1-.2-.1-.2-.2-.3-.3-.4 0-.1-.1-.1-.1-.2s-.1-.1-.2-.2-.2-.1-.3-.2l-.2-.1c-.9-.5-3.3-1.9-4-2.3-1-.5-2.2-.3-3 .3l-149.5 86.2c-1.3.8-2.4 1.9-3.1 3.3-.2.3-.4.7-.5 1.1-.2.4-.3.7-.4 1.1l-.2.6c-.1.5-.2 1.1-.2 1.6v263.8l.1.3c0 .1 0 .2.1.3.1.2.2.5.3.7.1.2.3.4.5.5.1.1.2.1.3.2l.8.4 1.3.8 1.4.8.4.2.1.1.2.1c.2.1.4.2.6.2h.5c.7 0 1.4-.2 2-.6L260.4 316c2.6-1.7 4.2-4.5 4.4-7.5v-263c-.1-.2-.1-.4-.1-.6zm-134.2 88.4v-.7c.2-3.1 1.8-6 4.4-7.7l.3-.2c.2-.1.5-.2.7-.3h.1c.1.4.2.8.2 1.3-.2 3.1-1.8 5.9-4.4 7.7-.4.2-.8.4-1.2.5 0-.1-.1-.4-.1-.6zm99.6-58.2c.2-3.1 1.8-6 4.4-7.7.1-.1.3-.1.4-.2l.2-.1.3-.1.3-.1c.1.4.2.8.2 1.3-.2 3.1-1.8 6-4.4 7.7-.4.2-.8.4-1.2.5-.2-.4-.2-.9-.2-1.3z"/>
	<path fill="#263238" d="M106.5 136.7v263c-.1 1 .3 2 1 2.6l-3.8-2.2c-.9-.6-1.4-1.7-1.3-2.8v-263c.1-1.5.5-3 1.3-4.3l4.1 2.4c-.8 1.3-1.2 2.8-1.3 4.3z"/>
	<path fill="#455A64" d="M264.7 44.9c0-.2 0-.3-.1-.4s0-.2-.1-.3v-.1c0-.1 0-.1-.1-.2v-.1c0-.1-.1-.1-.1-.2-.1-.2-.2-.3-.3-.4 0-.1-.1-.1-.1-.2s-.1-.1-.2-.2-.2-.1-.3-.2l-.2-.1c-1-.4-2.1-.2-2.9.4l-149.5 86.2c-1.3.8-2.4 1.9-3.1 3.3l-.3.6c-.1.1-.2.3-.2.4-.1.2-.2.4-.2.6-.1.2-.1.4-.2.6s-.1.3-.1.4v.1c0 .1-.1.3-.1.4v265.2c0 .1 0 .3.1.4l.1.2c0 .1.1.2.1.3.1.3.3.6.5.8l.2.2.1.1.2.1c.2.1.4.2.6.2h.5c.7 0 1.4-.2 2-.6L260.4 316c2.6-1.7 4.2-4.5 4.4-7.5v-263c-.1-.2-.1-.4-.1-.6zm-134.2 88.4v-.7c.2-3.1 1.8-6 4.4-7.7l.3-.2c.2-.1.5-.2.7-.3h.1c.1.4.2.8.2 1.3-.2 3.1-1.8 5.9-4.4 7.7-.4.2-.8.4-1.2.5 0-.1-.1-.4-.1-.6zm99.6-58.2c.2-3.1 1.8-6 4.4-7.7.1-.1.3-.1.4-.2l.2-.1.3-.1.3-.1c.1.4.2.8.2 1.3-.2 3.1-1.8 6-4.4 7.7-.4.2-.8.4-1.2.5-.2-.4-.2-.9-.2-1.3z"/>
	<path fill="#FFF" d="m109.1 351.8 153.1-88.4V79.8l-153.1 88.4z"/>
	<path fill="#263238" d="M135.1 124.8c.2-.1.5-.2.7-.3-.2.1-.4.2-.7.3z"/>
	<path fill="#263238" d="M139.3 127.5c-.2 3.1-1.8 5.9-4.4 7.6-2 1.2-3.7.6-4.3-1.3.4-.1.8-.3 1.2-.5 2.6-1.7 4.2-4.5 4.4-7.7 0-.4-.1-.9-.2-1.3h-.1c1.9-.3 3.4.8 3.4 3.2zM235.7 67l-.3.1.3-.1zm3.2 3c-.2 3.1-1.8 6-4.4 7.7-2 1.2-3.7.6-4.3-1.3.4-.1.8-.3 1.2-.5 2.6-1.7 4.3-4.5 4.4-7.7 0-.4-.1-.8-.2-1.3 1.9-.4 3.3.8 3.3 3.1z"/>
	<path fill="#2C2976" d="M129.4 211c-.6 0-1.1-.5-1.1-1.1v-36.6c0-.4.2-.7.6-.9l27.5-15.9c.5-.3 1.2-.1 1.5.4.3.5.1 1.2-.4 1.5l-27 15.6v36c-.1.5-.6 1-1.1 1zm0 113.3c-.2 0-.4 0-.5-.1-.3-.2-.5-.6-.6-.9v-36.6c.1-.6.6-1 1.2-1 .5 0 .9.5 1 1v34.7l25.9-14.9c.5-.3 1.2-.1 1.5.4.3.5.1 1.2-.4 1.5L130 324.3c-.3-.1-.4 0-.6 0zM241.9 146c-.6 0-1.1-.5-1.1-1.1v-34.7l-25.9 14.9c-.5.3-1.2.1-1.5-.4-.3-.5-.1-1.2.4-1.5l27.5-15.9c.3-.2.7-.2 1.1 0 .3.2.5.6.6.9v36.6c0 .7-.5 1.2-1.1 1.2zm-27.5 129.2c-.4 0-.7-.2-.9-.5-.3-.5-.1-1.2.4-1.5l27-15.6v-36c.1-.6.6-1 1.2-1 .5 0 .9.5 1 1v36.6c0 .4-.2.7-.6.9L214.9 275c-.1.1-.3.2-.5.2z"/>
	<path fill="#263238" d="M176.3 233.7zm-3.8-42.8zm52.5 44.6 7.4-4.3v-19.8h-.1l-6.9 4c-.4.2-.4.5-.4.8v8.7c0 .5.1.6.5.4.9-.6 1.8-1 2.7-1.6.4-.3.6-.2.6.4v3.6c.1.4-.2.8-.5 1-.9.5-1.8 1.1-2.8 1.6-.3.2-.5.5-.4.9-.1 1.4-.1 2.8-.1 4.3l-3.8 2.2v-24.9c-1 .6-1.9 1.1-2.8 1.6-1.1.6-.9.8-1-.7V210l-3.7 2.2v-5c-1 .5-2 1.1-3 1.7-.7.4-.7.4-.7-.5v-3c0-1 0-1 .8-1.5l2.9-1.7v-5c-1.1.6-2.1 1.2-3.2 1.9-.4.2-.5.1-.5-.4v-3.3c0-1.1 0-1 .8-1.5l2.9-1.7v-4.4c0-.6-.2-.6-.5-.3-.9.6-1.8 1-2.7 1.6-.4.2-.5.1-.5-.4V185c0-.5-.1-.6-.5-.4-.9.6-1.8 1.1-2.7 1.6-.4.2-.6.6-.5 1v3.7c.1.3-.1.6-.4.8-1.1.6-2.2 1.3-3.3 1.9v-23.5c0-1.4 0-1.4-1.1-.8l-2.6 1.5v-5c1.1-.6 2.1-1.3 3.2-1.8.4-.2.6-.6.5-1v-8.6c0-.5-.1-.7-.5-.4-.8.5-1.7.9-2.5 1.5-.5.3-.7.3-.7-.5v-8.2c0-.6-.1-.8-.6-.5-3.3 1.9-6.7 3.9-10 5.8-.5.2-.7.7-.6 1.2v8.3c.1.5-.2 1-.7 1.2-.9.4-1.7 1-2.6 1.5-.4.2-.5.1-.5-.4v-3.5c0-.6-.1-.8-.6-.5-.9.6-1.8 1.1-2.6 1.5-.4.2-.6.6-.5 1v3.7c0 .3-.1.5-.3.8-1.1.7-2.3 1.3-3.4 2V159c-1.2.7-2.3 1.3-3.5 2-.1.2-.2.4-.3.7v3.7c.1.4-.1.8-.5 1-.9.5-1.8 1.1-2.7 1.6-.4.2-.6.6-.5 1v3.3c0 1.1 0 1 .8.6 2-1.2 4.1-2.4 6.1-3.5.2-.1.5-.1.5.1v4.6c-1.1.6-2.1 1.3-3.2 1.8-.4.2-.6.6-.6 1.1v4.3l3.7-2.1v5l-3.6 2.2v5c1.1-.6 2.1-1.2 3.2-1.9.4-.2.5-.2.5.4v4.3l3.9-2.2c0 1.7-.2 3.4-.1 4.9l6.9-3.9c.2-.1.5-.1.5.1v4.6c-3.6 2.1-7.1 4.1-10.7 6.2-.2.1-.5.1-.5.7v4.6c1.1-.6 2.1-1.2 3.2-1.9.4-.3.6-.2.6.4v3.5c0 .6.1.7.6.4 2.1-1.2 4.2-2.4 6.3-3.7.4-.3.6-.2.6.4v3.5c.1.5-.2.9-.6 1.1-.9.5-1.8 1.1-2.7 1.5-.3.2-.5.5-.5.9v3.4c.1.5-.2 1.1-.7 1.3-.8.4-1.7 1-2.5 1.4-.4.2-.6.6-.6 1.1v9.3l-3.7 2.2v4.3c0 .5.1.6.5.4 1.1-.6 2.1-1.2 3.2-1.9.1 3 0 6.2.1 9.2.1.4-.2.9-.6 1.1-1.1.6-2.1 1.2-3.2 1.9v4.2c.1.5-.2.9-.6 1.1-.8.4-1.6 1-2.5 1.4-.6.3-.7.6-.7 1.4v4c1.1-.6 2.1-1.2 3.2-1.8.4-.3.6-.1.6.4v8.4c.1.5-.2 1-.6 1.2-2.3 1.3-4.6 2.5-6.9 4v4.2c0 .5.1.7.5.4.9-.5 1.8-1 2.7-1.6.4-.2.6-.2.5.4v3.6c0 .4-.2.8-.5 1-.9.5-1.8 1-2.7 1.6-.2.2-.4.4-.4.7v4.5l7.5-4.3v-4.1c-.1-.4.1-.9.6-1.1.9-.5 1.8-1 2.7-1.6.4-.2.5-.1.5.4v3.7c0 .5.1.6.4.4 2.2-1.3 4.4-2.5 6.6-3.8.3-.2.5-.5.4-.9v-3.6c0-.4.2-.8.5-1l2.7-1.5c.4-.3.5-.1.5.4v3.4c0 .7.1.8.7.5 3.5-2.1 7.1-4 10.6-6.2v-14c0-.6.1-1 .6-1.2.8-.4 1.7-1 2.5-1.4.4-.2.7-.7.6-1.1v-3.6c-.1-.4.1-.7.5-.9.9-.5 1.9-1.1 2.8-1.6.4-.2.5-.1.5.4v3.8c0 .4.1.5.4.3 1.1-.7 2.2-1.3 3.3-1.9v9.5c0 .3-.1.6-.4.7-.9.5-1.9 1.1-2.9 1.6-.4.2-.5.1-.5-.4v-3.7c0-.5-.1-.7-.5-.4-.9.6-1.8 1.1-2.7 1.6-.4.2-.6.6-.5 1v3.4c0 .7.1.9.7.5 1-.6 2-1.2 3.1-1.8v4.8l3.7-2.2v-3.6c0-1.4-.2-1.2.9-1.8 2-1.2 4-2.3 6-3.4.5-.2.7-.7.6-1.2-.1-5.5.8-4.3-3.3-2.3-.2.1-.4 0-.4-.2v-4.5c2.3-1.4 4.5-2.6 6.7-3.9.8-.4.8-.4.8-1.5-.3-1.7-.3-2.9-.2-4.3zm-48.7-56.7v-5c1.3-.7 2.4-1.5 3.7-2.2 0-1.4.1-2.9.1-4.3-.1-.3.1-.7.4-.9 1-.5 1.9-1.1 2.9-1.6.3-.2.4-.1.4.4V179c0 .4-.1.7-.5.9-.9.5-1.8 1-2.8 1.6-.4.2-.5.1-.5-.4v-4.3l-3.7 2zm6.9 11c-1 .6-2 1.2-3.1 1.8-.1-.2-.1-.4-.2-.6v-3.8c-.1-.4.1-.7.5-.9.9-.5 1.9-1 2.8-1.6.4-.2.5-.1.5.4v3.6c.1.4-.1.9-.5 1.1zm27.1 24.2 3.3-1.9v4.9c-1.2.7-2.3 1.4-3.5 2-.1 0-.2-.1-.2-.3v-4c0-.3.2-.6.4-.7zm-7.5-15.6c1-.6 1.9-1.1 2.9-1.7.3-.2.5-.1.5.3v3.8c0 .4-.1.7-.5.9-.9.5-1.9 1-2.8 1.6-.4.2-.5.1-.5-.4v-4.1l.4-.4zm-.3 10.7c-.1-.4.1-.7.5-.9.5-.3.9-.5 1.4-.8s.9-.5 1.4-.8c.3-.2.4-.1.4.3v3.9c0 .3-.1.6-.4.8-1 .5-1.9 1.1-2.9 1.6-.3.2-.4.1-.4-.3v-3.8zm-3.8-28.9c.1.3-.1.7-.4.9-1 .5-1.9 1.1-2.9 1.7-.3.1-.4.1-.4-.3V178c1.1-.6 2.1-1.2 3.2-1.9.4-.2.5-.1.5.4v3.7zm-7.5 4.2c.1.4-.1.8-.5 1-.9.5-1.8 1-2.7 1.6-.4.2-.5.1-.5-.4V178c0-.3 0-.6.3-.9l7.2-4.1v5c-1 .6-2.1 1.3-3.2 1.8-.5.2-.7.7-.6 1.3.1 1 0 2.2 0 3.3zm-3.7-21.4c-.1-.4.1-.8.5-1 .8-.4 1.6-.9 2.4-1.4 1-.6.9-.4.9-1.7v-3.1c0-.4.2-.8.5-1 .9-.5 1.8-1 2.7-1.6.4-.3.6-.2.6.4v4.2l3.7-2.1v4.6c-.1.3-.3.5-.5.6-2.3 1.4-4.6 2.6-6.9 4.1 0 1.4-.1 2.9-.1 4.3.1.4-.1.7-.5.9-.9.5-1.8 1-2.7 1.6-.4.2-.5.2-.5-.4-.1-2.6-.1-5.5-.1-8.4zm-7.4 68.5c1.1-.7 2.3-1.3 3.4-2 .1 0 .3.1.3.3v4.1c0 .2-.1.4-.3.6-1.1.7-2.3 1.3-3.4 2v-5zm3.7 42.1c.1.4-.1.7-.5.9-.9.5-1.9 1.1-2.8 1.6-.3.2-.5.1-.4-.3v-3.9c.1-.3.2-.5.4-.7 1-.6 1.9-1.1 2.9-1.7.4-.2.4 0 .4.4v3.7zm0-15c0 .3-.1.5-.3.8-1.1.7-2.2 1.3-3.4 2V258c0-1.6 0-1.6 1.2-2.3l2.7-1.5c-.2 1.5-.3 3-.2 4.4zm3.1-6.1c-1 .5-2 1.1-3 1.7-.1-1.4-.2-2.9-.1-4.3 0-.5-.1-.6-.5-.4-.9.6-1.9 1.1-2.8 1.6-.1.1-.4 0-.4-.1v-4.6l2.9-1.7c.9-.5.8-.4.8-1.6v-8.8l2.4-1.4c1.3-.8 1.3-.8 1.3 1v17.3c0 .7-.1 1-.6 1.3zm7.6 10.6c-4.1 2.1-3.1 3-3.2-2.5 0-.5-.1-.6-.5-.4-4.2 2.3-3.1 2.9-3.3-2.4-.1-.4.2-.9.6-1.1 2.3-1.3 4.6-2.7 6.9-4v9.3c.1.4-.1.9-.5 1.1zm4.3-12.5-3.8 2.2v-9.4c0-.3.1-.6.4-.8 1-.5 1.9-1.1 2.9-1.7.3-.1.4-.2.4.3 0 3 0 6.2.1 9.4zm0-15.7c0 .4-.2.8-.5 1-.9.5-1.8 1-2.7 1.6-.4.2-.6.2-.5-.4v-3.6c0-.5-.1-.7-.5-.4-.9.6-1.8 1-2.7 1.6-.4.2-.5.2-.5-.4v-3.7c-.1-.4.1-.7.5-.9.9-.5 1.9-1.1 2.9-1.6.3-.1.5-.5.4-.8v-4.4c-2.3 1.2-4.6 2.6-6.9 3.9-.4.3-.6.2-.6-.4v-3.6c-.1-.4.1-.8.5-1l2.7-1.5c.4-.2.6-.6.5-1 0-6.4.1-12.9-.1-19.3-1.1.6-2.1 1.2-3.1 1.8-.5.3-.6.2-.6-.4v-4.2l7.5-4.3v-4c0-1 0-1 .7-1.4s1.6-.9 2.5-1.4c.4-.3.5-.1.5.4v9.3l3.7-2.1v5.2c-.1 0-.2 0-.4.1-2.4 1.4-4.7 2.6-7.1 4.1v4.9l2.9-1.7c.8-.4.8-.4.8.6v14c2.3-1.4 4.6-2.6 6.9-4 .4-.3.6-.2.6.4v3.4c.1.5-.2 1-.6 1.2l-6.9 3.9c0 3 0 6.1.1 9.1zm14.9 2.1c-3.6 2.1-7.1 4.1-10.6 6.1-.4.3-.6.2-.6-.4v-13.4c-.1-.5.2-1 .6-1.2 3.3-1.9 6.7-3.8 10-5.8.5-.3.6-.2.6.5V237zm-41.2-56zm-21.9 72.5c-.4.2-.5.2-.5-.4v-8.7c-.1-.4.2-.8.5-1 2.2-1.2 4.4-2.5 6.5-3.8.4-.2.5-.1.5.4v4.4c2.3-1.3 4.6-2.7 6.9-3.9.4-.2.7-.6.6-1.1v-4.2c-2.5 1.2-5 2.9-7.5 4.2v-4.3c0-.5-.1-.6-.5-.4-.9.6-1.8 1-2.7 1.6-.4.3-.5.1-.5-.4v-9.3c-2.3 1.3-4.6 2.6-6.9 4-.5.3-.6.2-.6-.5v-3.4c-.1-.5.2-.9.6-1.1 3.6-2.1 7.1-4 10.6-6.2V210c0-.4-.2-.4-.4-.2-1 .6-1.9 1.1-2.9 1.7-.3.2-.5.5-.4.8v4.4l-2.5 1.4c-1.3.7-1.3.7-1.3-1v-3.3c-1.1.6-2.1 1.3-3.1 1.8-.5.3-.6.6-.6 1.2 0 3 .1 6 0 9.1l-7.4 4.3c-.1 1.5 0 2.9-.1 4.4 0 .6.2.6.6.4.9-.6 1.8-1 2.8-1.6.3-.2.4-.1.4.3v3.7c.1.4-.2.8-.5.9-.9.5-1.8 1-2.6 1.5-.4.2-.7.7-.6 1.1 0 3-.1 6.1 0 9.1 1.1-.6 2.1-1.3 3.2-1.8.1-.1.4 0 .4.1v4.7l-3.7 2.1v5c1.1-.6 2.1-1.2 3.2-1.9.4-.2.5-.1.5.4v3.7c0 .4.1.5.4.4.9-.6 1.9-1.1 2.9-1.6.3-.2.5-.5.4-.9v-4.4l3.7-2.1c.1 1.4 0 2.8 0 4.2 0 .5.1.7.5.4.9-.6 1.9-1.1 2.8-1.6.4-.2.6-.6.5-1v-4.3c-1 .9-2.1 1.5-3.2 2.1zm-4.3 2.4c-1.2.7-2.3 1.4-3.4 2-.1 0-.3-.1-.3-.3v-4.5c1.2-.7 2.3-1.3 3.4-1.9.1-.1.3.1.3.2v4.5zm3.3-16.8c-.8.4-1.5.9-2.3 1.3-1.1.6-1 .4-1 1.8v3.1c.1.4-.1.8-.5.9-.9.5-1.9 1-2.8 1.6-.4.2-.5.1-.5-.4v-8.6c-.1-.4.1-.9.6-1.1 2.1-1.2 4.3-2.4 6.4-3.7.4-.2.5-.2.5.4v3.6c.1.5-.1.9-.4 1.1zm57.3-63 25.5-14.7v-33.9c0-1 0-1-.8-.6l-24.7 14.2c-.7.4-.7.4-.7 1.4v33c0 1 0 1 .7.6zm3.7-32.1c5.8-3.3 11.6-6.7 17.4-10 .6-.3.7-.1.7.6v23.2c.1.5-.2 1.1-.7 1.3-5.8 3.3-11.6 6.7-17.4 10-.5.3-.7.2-.7-.5v-23.3c-.1-.6.2-1.1.7-1.3zm-71 71c8.3-4.8 16.5-9.6 24.8-14.3.7-.4.7-.4.7-1.4v-33c0-.9 0-.9-.7-.5-8.5 4.9-17 9.7-25.4 14.7-.1 11.4 0 22.6 0 34-.1.7 0 .8.6.5zm3-30.9c-.1-.5.2-.9.6-1.1 5.9-3.3 11.7-6.7 17.6-10.1.5-.3.6-.1.6.5v23.4c.1.5-.2 1-.6 1.2-5.8 3.3-11.7 6.7-17.5 10.1-.4.3-.6.2-.6-.4-.1-8-.1-15.9-.1-23.6zm21.8 71.4-25.5 14.7c-.1 11.4 0 22.7 0 34 0 .7.1.8.7.5l25.5-14.7v-34c0-.7-.2-.8-.7-.5zm-3.7 32.1c-5.8 3.3-11.6 6.7-17.4 10.1-.5.3-.7.2-.6-.5V274c-.1-.5.2-1.1.7-1.3 2.9-1.7 5.9-3.4 8.8-5s5.8-3.3 8.7-5c.5-.3.6-.2.6.5v23.3c-.1.4-.4.9-.8 1.1zm71.7-116.2-3.7 2.1v-4.3c0-.5-.1-.6-.5-.4-.9.6-1.9 1.1-2.8 1.6-.3.2-.5.6-.5.9v3.7c0 .5.1.6.5.4.9-.6 1.8-1 2.8-1.6.4-.3.5-.1.5.4v3.6c.1.4-.2.8-.6 1-2.3 1.3-4.6 2.6-6.9 4v4.6c0 .1.3.2.4.1.9-.5 1.7-1 2.6-1.5s.7-.4.7.6v8.3c0 .5.1.7.5.4.9-.5 1.8-1 2.6-1.5.4-.3.6-.2.6.4v3.3c.1.6-.2 1.1-.7 1.4-2.3 1.2-4.5 2.7-6.8 3.9v-9.1c0-.6-.1-.7-.6-.4-.9.5-1.8 1-2.6 1.5-.4.2-.6.6-.6 1.1 0 3.1-.1 6.2 0 9.2 1.2-.8 2.4-1.4 3.7-2 0 1.6.1 3.2.1 4.9 1.1-.6 2.1-1.1 3-1.8.6-.4.7-.2.7.6v3.4c0 .4.1.6.4.4 1-.6 1.9-1.1 2.9-1.6.3-.2.5-.5.4-.9v-3.4c0-.9 0-.9.7-1.4l2.9-1.7c.2-4.9 0-9.6.1-14.5 0-.5-.1-.5-.5-.3-.9.5-1.8 1-2.8 1.6-.4.3-.5.1-.5-.4v-3.6c-.1-.4.1-.8.5-1 .9-.5 1.7-1 2.6-1.5.5-.2.7-.7.7-1.2.1-3.3.2-6.3.2-9.3zm-59.9 59.5v-3.6c0-1.4 0-1.4 1.1-2l2.6-1.5v-9.9l-3.6 2.1c-.1.1-.1.2-.2.2 0 .1.1.2.1.2v9c0 .3-.1.6-.4.8-1 .5-1.9 1.1-2.9 1.6-.4.2-.5.1-.5-.4v-3.7c0-.5-.1-.6-.5-.4-2.2 1.3-4.3 2.5-6.5 3.7-.4.2-.6.6-.5 1v3.6c0 .5.1.6.5.4.9-.6 1.8-1 2.7-1.6.4-.2.5-.1.5.4v4.4c2.6-1.5 5.1-2.9 7.6-4.3zm-.1-14.8zm-7.3 19.1zm64.1 7.8 2.7-1.5c.3-.2.5-.5.5-.9v-3.8c0-.4-.1-.5-.4-.3-1 .6-1.9 1.1-2.9 1.7-.3.2-.5.5-.4.9v3.6c0 .4-.2.8-.5 1l-2.7 1.5c-.4.2-.6.6-.5.9v8.6c0 .6.2.6.6.4 1.1-.6 2.1-1.2 3.2-1.8l3.3-1.9c.3-.1.5-.5.5-.8v-3.8c0-.5-.1-.5-.5-.3-.9.6-1.8 1-2.8 1.6-.4.2-.5.1-.5-.4v-3.5c-.2-.5 0-1 .4-1.2zm-60.4 5zm3.7-41.6c0-.2 0-.3-.1-.5l-3.3 1.9c-.4.2-.4.5-.4.8v8.7c0 .6.2.6.6.4 1-.7 2-1.2 3.1-1.6 0-.2.1-.4.1-.6v-9.1zm-.1 9.7zm3.8 32.6zm-.4-4.8-7 4v4.3c0 .6.1.6.5.4 2.3-1.4 4.6-2.7 6.9-4v-4.4c.1-.4-.1-.5-.4-.3zm-11.1-28.5c-1 .6-2 1.1-3 1.7-.3.1-.4.4-.4.7v4c0 .4.2.4.4.3l1.5-.9c.5-.3 1-.5 1.4-.8.2-.2.3-.4.4-.7v-4c.1-.4 0-.5-.3-.3zm-22.5 3c-1 .5-2 1.1-3 1.7-.2.2-.3.4-.4.6v4.6c1.2-.7 2.3-1.3 3.4-2 .2-.2.3-.4.3-.6v-4c.1-.2-.1-.4-.3-.3zm30.3 12.5zm3.7-37.1zm-3.7 6.5c0 .4.1.6.4.4 1-.6 1.9-1.1 2.9-1.7.3-.1.5-.5.4-.8v-4.4l-3.7 2.1v4.4zm-7.9 5.1-2.9 1.7c-.3.2-.5.5-.4.8v3.9c0 .4.1.4.4.3 1-.6 2-1.1 2.9-1.7.3-.1.4-.4.4-.7v-4c.1-.4-.1-.4-.4-.3zm-7 44zm-3.7 2.2zm3.7-7.1zm-3.7 2.1v4.9l3.7-2.1v-5l-3.7 2.2zm18.6-60.6zm-3.3-3.1c-.3.2-.5.5-.4.8v3.8c0 .5.2.6.5.3 1.1-.6 2.1-1.2 3.2-1.9v-5c-1.1.7-2.2 1.4-3.3 2zm3.3 13zm-3.2-3.1c-.4.2-.6.6-.5 1v3.7c0 .5.1.6.5.4 1.1-.6 2.1-1.3 3.2-1.9v-5c-1.1.6-2.1 1.2-3.2 1.8zm47.7-17.6c-1 .6-1.9 1.1-2.9 1.7-.3.1-.5.5-.4.8v3.9c0 .2.2.4.3.3 1.1-.6 2.3-1.3 3.4-2v-4.5c0-.3-.1-.3-.4-.2zm-44.5 85.5zm-3.7 2.7v4.1c0 .1.2.3.3.2 1.1-.6 2.3-1.3 3.4-2v-5l-3.2 1.9c-.4.2-.6.5-.5.8zm40.8-34c-.5.2-1 .6-1.5.8s-1 .6-1.5.9c-.3.1-.4.4-.4.7v4c0 .2.2.3.3.3 1-.5 2-1.1 3-1.7.2-.2.3-.4.3-.7v-4c.1-.2-.1-.3-.2-.3zm-37.7 11.7c.4-.2.7-.6.6-1.1v-4.2l3.7-2.2v-4.9l-3.7 2.1v5c-1.1.6-2.1 1.3-3.2 1.8-.4.2-.6.6-.5 1v4.3l-11.2 6.5v4.4c0 .5.1.5.5.3l10.7-6.2v-5c1-.5 2.1-1.1 3.1-1.8zm42.4-79.3c3.5-2.1 7-4.1 10.6-6.1.1-4.8 0-9.4.1-14.1 0-.7-.2-.8-.7-.5-3.5 2.1-7 4-10.6 6.2v14.1c0 .7.1.7.6.4zm-68 38.5c0 .6.1.7.6.4l5.1-3c1.7-1 3.3-1.9 5-2.9.4-.2.7-.6.6-1.1v-13.5c0-.5-.1-.6-.5-.4-3.4 2-6.8 4-10.2 5.9-.4.2-.6.6-.5 1-.1 4.6-.1 9.1-.1 13.6zm10.7 69.4c-3.5 2.1-7 4.1-10.6 6.1-.1 4.8 0 9.4-.1 14.1 0 .7.1.8.7.5 3.5-2.1 7-4 10.6-6.2v-14.1c0-.5-.1-.7-.6-.4z"/>
	<path fill="#FAFAFA" d="M150.4 351.5c0-1 .2-2 .4-3s.5-1.9.9-2.8c.4-.9.9-1.7 1.5-2.4s1.3-1.3 2.2-1.8c.6-.4 1.4-.7 2.1-.7.6 0 1.1.2 1.5.6.4.5.8 1.1.9 1.7.2.8.3 1.7.4 2.5v4.6c0 1-.2 1.9-.3 2.8-.2.9-.5 1.8-.9 2.7l1.3 2.1v.2c0 .2 0 .3-.1.5-.1.1-.1.2-.3.3l-1.6.9c-.2.1-.3.1-.4 0-.1-.1-.2-.2-.2-.3l-.5-.9c-.3.3-.6.6-.9.8-.3.3-.6.5-1 .7-.6.4-1.4.7-2.2.7-.6 0-1.1-.2-1.5-.6-.4-.5-.8-1.1-.9-1.7-.2-.8-.3-1.7-.4-2.5v-3.5c0-.4-.1-.6 0-.9zm7.6-4.3c.1-.9-.2-1.8-.8-2.5-.5-.4-1.1-.4-1.9.1-.8.5-1.5 1.2-1.9 2.1-.5 1-.8 2.2-.8 3.4v4.4c-.1.9.2 1.8.8 2.4.5.4 1.1.4 1.9-.1.8-.5 1.5-1.2 1.9-2.1.5-1 .8-2.2.8-3.3v-4.4zm9.3-12.3c1.4-.8 2.5-.9 3.2-.3s1.1 1.8 1.1 3.5c0 1.2-.2 2.4-.6 3.6-.4 1.1-.9 2.1-1.7 2.9l2.3 5.1c0 .1.1.2.1.3 0 .2 0 .3-.1.5 0 .1-.1.2-.3.3l-1.4.8c-.2.1-.4.1-.5 0-.1-.1-.2-.2-.2-.3l-2.2-4.7-2.2 1.3v6c0 .2-.1.4-.1.6-.1.2-.2.3-.3.4l-1.4.8c-.1.1-.2.1-.3 0-.1-.1-.2-.3-.1-.4v-16.8c0-.2.1-.4.1-.6.1-.2.2-.3.3-.4l4.3-2.6zm-2.5 9.6 2.4-1.4c.6-.3 1.1-.8 1.5-1.4.4-.7.6-1.5.6-2.3 0-1-.2-1.5-.6-1.6-.5-.1-1.1.1-1.5.4l-2.4 1.4v4.9zm20.1-7.4c0-.2.1-.4.2-.6.1-.1.2-.3.3-.4l1.4-.8c.1-.1.2-.1.3 0 .1.1.1.3.1.4 0 .8-.2 1.6-.3 2.3-.2.8-.5 1.7-.9 2.4-.4.8-.9 1.6-1.5 2.3-.6.7-1.4 1.4-2.2 1.8-.6.4-1.3.6-2.1.7-.6 0-1.1-.2-1.5-.6-.5-.5-.8-1.1-1-1.7-.2-.9-.4-1.7-.4-2.6v-4.4c0-1.1.2-2.1.4-3.1s.6-1.9 1-2.8c.4-.8.9-1.6 1.5-2.4.6-.7 1.3-1.3 2.1-1.8.7-.4 1.4-.7 2.2-.8.6 0 1.1.2 1.5.5.4.4.7.9.9 1.4.2.6.3 1.3.3 1.9 0 .2 0 .4-.1.6-.1.2-.2.3-.3.4l-1.4.8c-.1.1-.2.1-.3 0-.1 0-.2-.2-.2-.4 0-.3-.1-.6-.2-.9-.1-.2-.3-.4-.5-.6-.2-.1-.5-.2-.8-.2-.4.1-.8.2-1.1.4-.4.3-.8.6-1.1 1-.3.4-.6.8-.8 1.3-.2.5-.4 1-.5 1.5-.1.5-.2 1.1-.2 1.6v4.4c0 .5.1 1 .2 1.4.1.4.3.7.5.9.2.2.5.3.8.4.4 0 .8-.1 1.1-.4.4-.2.8-.5 1.1-.9.3-.3.6-.7.8-1.1.2-.4.4-.8.5-1.2.1.1.2-.3.2-.7zm3.9-7.8c0-1 .2-2 .4-3s.5-1.9.9-2.8c.4-.9.9-1.7 1.5-2.4s1.3-1.3 2.2-1.8c.6-.4 1.4-.7 2.1-.7.6 0 1.1.2 1.5.6.4.5.8 1.1.9 1.7.2.8.4 1.7.4 2.5v4.6c0 1-.2 2-.4 2.9-.2 1-.5 1.9-.9 2.8-.4.9-.9 1.7-1.5 2.4s-1.3 1.3-2.1 1.8c-.6.4-1.4.7-2.2.7-.6 0-1.1-.2-1.5-.6-.4-.5-.8-1.1-.9-1.7-.2-.8-.3-1.7-.4-2.5v-4.5zm7.6-4.3c.1-.9-.2-1.8-.8-2.4-.5-.4-1.1-.4-1.9.1-.8.5-1.5 1.2-1.9 2.1-.5 1-.8 2.2-.8 3.4v4.4c-.1.9.2 1.8.8 2.4.5.4 1.1.4 1.9-.1.8-.5 1.5-1.2 1.9-2.1.5-1 .8-2.2.8-3.3V325zm9.2-12.2c.7-.4 1.4-.7 2.2-.7.6 0 1.1.2 1.5.6.5.5.8 1.1.9 1.7.2.9.4 1.8.4 2.7.1 1.3.1 2.5 0 3.8 0 1.1-.2 2.1-.4 3.2-.2 1-.5 1.9-.9 2.8-.4.8-.9 1.6-1.5 2.3-.6.7-1.3 1.3-2.1 1.7l-4.3 2.5c-.1.1-.2.1-.3 0-.1-.1-.1-.3-.1-.4v-16.8c0-.2 0-.4.1-.6.1-.2.2-.3.3-.4l4.2-2.4zm2.7 5.6c0-.5-.1-1-.2-1.4-.1-.4-.3-.7-.5-.9-.2-.2-.5-.3-.9-.3s-.9.2-1.3.4l-2.3 1.3v11.7l2.4-1.4c.5-.3.9-.6 1.2-1 .3-.4.6-.8.8-1.3.2-.5.4-1 .5-1.5.1-.6.2-1.1.2-1.7.2-1.4.2-2.7.1-3.9zm12.4.6c.1-.1.2-.1.3 0 .1.1.2.3.1.4v1.8c0 .2-.1.4-.1.6-.1.2-.2.3-.3.4l-7.4 4.3c-.1.1-.2.1-.3 0-.1-.1-.2-.3-.1-.4v-16.7c0-.2.1-.4.1-.6.1-.2.2-.3.3-.4l7.3-4.2c.1-.1.2-.1.3 0 .1.1.1.3.1.4v1.8c0 .2 0 .4-.1.6-.1.2-.2.3-.3.4l-5.4 3.1v4.1l5.1-2.9c.1-.1.2-.1.3 0 .1.1.1.3.1.4v1.8c0 .2 0 .4-.1.6-.1.2-.2.3-.3.4l-5.1 2.9v4.3l5.5-3.1z"/>
	<path fill="#FFBDA7" d="M361.4 419.5c.1 4.9.5 12.1 0 14.2s-8.7 4-15.2 4.3-14.2-.7-14.6 3.8 3.6 7.6 6.5 9c5 2.3 10.6 1.8 15.6 1.1s7.5-.2 12.8 1.1 8.1.5 10.4-.6c3.3-1.6 2.4-7.3 1.3-11s-1-7-.6-12.1 1.9-12.5 1.9-12.5l-18.1 2.7z"/>
	<path fill="#455A64" d="M378.1 441.5s0 1.6-3.4 2.3-9 .5-12.9.8c-5.9.4-10.4 1-17.1 0-5.9-.9-5.7-5.6-.4-6.4-6 .1-12.3-.3-12.7 3.8-.5 4.6 3.6 7.6 6.5 9 5 2.3 10.6 1.8 15.6 1.1s7.5-.2 12.8 1.1 8.1.5 10.4-.6c3.2-1.8 2.4-7.5 1.2-11.1z"/>
	<path fill="#FFBDA7" d="M422.6 407.3c2.8 4 7.3 11.6 8 13.5s1.2 8.9 0 11c-1.7 1.3-4.4 2-6.8 3.1-3.3 1.6-4.1 4.4-1.9 6.5 3 2.9 8 3.3 10.9 3.1 4.3-.7 4.6-5.5 5.2-9.8s-.1-12.7 3.1-17.9 9-5.7 9.8-3.9c-.4-2.6-1.8-2.7-4.9-4.4s-5.8-1.7-7.5-5.8c-2-4.8-3.9-10.6-3.9-10.6l-12 15.2z"/>
	<path fill="#263238" d="M428.7 444.6c3.1.5 5.3.5 10.8-2.2 4.8-2.3 6-3.3 6.7-4.6 1.1-2-.1-7.1.9-11.5.7-3.1 1.8-6 3.1-8.9 1.1-2.6 1-3.8.8-4.5-.4-1.6-3.7-1.9-6.9 0s-5.3 5.4-6.3 13.8.6 17.7-9.1 17.9z"/>
	<path fill="#455A64" d="M451 412.9c-.4-2.6-1.3-3-4.4-4.8-1.1-.6-2.3-1.1-3.4-1.7-3-.6-7.8 1.8-8 8.1s.8 14.4-1.1 17.3c-1.6 2.5-4.3 2.4-3.7-.1-4.3 1.6-5.8 1.6-8.2 2.9-2.8 1.5-3.7 5.5-1.1 7.1 3.4 2.3 7.5 3.3 11.6 2.7 4.3-.7 4.6-5.5 5.2-9.8s-.1-12.7 3.2-17.9 9.2-5.5 9.9-3.8z"/>
	<path fill="#2C2976" d="M423.4 409.8s-15.7-23-24.1-38c-6.2-11-6.8-13.2-8.3-20.4-3.3-15.5-4-19.2-4-19.2l-4.9 31.4c.8 3.4 2.4 10.1 2.4 14.1 0 7.7-.7 15.5-1.9 23.1-1.1 8.6-2.7 17.2-4.8 25.6-1.2.9-4.8 1-7.8.9-3-.2-5.9-.7-8.8-1.6 0 0-2.6-36.9-3.2-47.1-.7-12.2-1-17-1.3-23.7-.6-10.7-2.1-26.1-1.6-45.7.8-39 9.5-56.8 9.5-56.8l44-6.1c3.6 13.1 11.2 14.7 12 32.6.2 4.1-2 12.1-2 18.5-.2 20.5-2.1 52.6-2.1 52.6 4.8 4.5 8.4 8.5 11.7 18.8 2 6.3 6.5 22.1 8.4 28.6-5.5 0-13.2 9.9-13.2 12.4z"/>
	<path fill="#37474F" d="m379 274.9 1.2-.2c1 7.1 2.7 15.1 3.6 15.7 1.6 1.1 7.6 2 9 1.7s2.5-1.4 4.9-4.7c1.7-2.3 1.5-3.7 1.1-6.8-.1-1.2-.3-2.5-.4-4.1l1.2-.1c.1 1.6.3 2.9.4 4.1.4 3.1.6 5-1.3 7.7-2.6 3.5-3.9 4.7-5.6 5.1-.2.1-.5.1-.8.1-2.4.1-7.5-.8-9.1-1.9-1.9-1.3-3.7-13-4.2-16.6zm-18.1-1 1.1.3c-3.3 12-2.6 22.9 3.4 26.3 1.1-8.1 2.6-16.4 4.7-25.4l1.1.3c-6.8 28.8-7.6 51.5-6.7 78.7.7 20.8 2 56.4 2.6 73l-1.2-.2c-.6-16.7-1.9-52.1-2.6-72.8-.6-18.4-.4-34.8 1.9-52.4-6.8-3.4-7.8-15-4.3-27.8zm59.3 10.7c-.7.7-1.6 1.2-2.6 1.5-1.9.1-4.9-2.6-5.8-4.5-.4-1.1-.7-2.4-.8-3.6-.2-1.8-.5-3.6-1-5.4l1.1-.3c.5 1.8.8 3.7 1 5.5.1 1.1.3 2.2.6 3.3.7 1.7 3.4 3.9 4.7 3.8 1.1-.6 2.1-1.4 2.9-2.3.1.6 0 1.4-.1 2zm6.9 119c.3-.3.5-.6.8-.9-7.5-13.1-23.6-41.8-25.1-48.7-1.9-8.9-5-38.8-5.1-54.8h-1.2c.1 16.1 3.3 46.1 5.2 55.1 1.5 7.2 18 36.3 25.4 49.3zm-23-133.4c3 4.8 4.8 13.1.9 22.2l-1-.4c3.7-8.7 2-16.6-.9-21.1l1-.7z"/>
	<path fill="#37474F" d="m387 332.3 4.8-32.9s12.4-1.7 14.1-13.3c.3 6.9-2.5 12.8-10.1 16l-6.1 30.3 1.4 19-4.1-19.1zM305.9 183.3v-33.9c.1-.6-.2-1.3-.7-1.6-.6-.3-1.3-.3-1.8.2l-14.8 8.6c-.6.4-1 1.1-1 1.8v33.9c-.2.8.4 1.6 1.2 1.8.5.1.9 0 1.3-.3l14.8-8.6c.7-.4 1.1-1.1 1-1.9z"/>
	<path fill="#263238" d="m305 183.7-15.2 8.8v-34.1l-1.9-1.1c-.2.3-.3.6-.3 1v33.9c-.1.6.2 1.3.7 1.6.6.3 1.3.2 1.8-.2l14.8-8.6c.4-.2.7-.6.9-1h-.1l-.7-.3z"/>
	<path fill="#455A64" d="m304.9 149.1-14.9 8.6c-.4.3-.7.8-.7 1.3v33.6c0 .7.5 1 1.1.6l14.5-8.4c.5-.3.8-.9.8-1.4v-33.8c0-.5-.4-.7-.8-.5z"/>
	<path fill="#263238" d="M305 151.3v31.3c0 .6-.3 1.1-.8 1.4l-13.4 7.7c-.4.3-.8 0-.8-.4v-31.6c0-.5.2-.9.6-1.2l.1-.1.2-.1 3.8-2.2.3-.1c.1-.1.2 0 .2.1s.1.2.3.1l4.4-2.5c.1-.1.2-.3.3-.4 0-.2.1-.3.2-.4l3.7-2.1h.1c.3-.4.8-.1.8.5z"/>
	<path fill="#FFF" d="M303.9 150.8v31.1c0 .6-.3 1.1-.8 1.4l-13.1 7.6v-31.1c0-.5.2-.9.6-1.2l.1-.1.2-.1 3.8-2.2.3-.1c.1-.1.2 0 .2.1s.1.2.3.1l4.4-2.5c.1-.1.2-.3.3-.4 0-.2.1-.3.2-.4l3.5-2.2z"/>
	<path fill="#263238" d="m296 155 2-1.2c.1-.1.2 0 .2.1s-.1.3-.2.4l-2 1.2c-.1.1-.2 0-.2-.1 0-.2.1-.3.2-.4zm3-1.9c.1-.1.3 0 .3.1 0 .2-.1.3-.3.4-.1.1-.2 0-.2-.1s.1-.3.2-.4z"/>
	<path fill="#455A64" d="M288.9 162.7c0-.3-.1-.5-.4-.7h-.3l-.3.2c-.1.1-.1.2-.1.3v2.9c0 .3.2.5.4.7h.3l.3-.2c.1-.1.1-.2.1-.3v-2.9z"/>
	<path fill="#37474F" d="M288.6 162.8v2.9c0 .3-.2.4-.4.3-.2-.2-.4-.4-.4-.7v-2.9c0-.3.2-.4.4-.3.3.2.4.4.4.7z"/>
	<path fill="#455A64" d="M288.9 167.8c0-.3-.1-.5-.4-.7h-.3l-.3.2c-.1.1-.1.2-.1.3v2.9c0 .3.2.5.4.7h.3l.3-.2c.1-.1.1-.2.1-.3v-2.9z"/>
	<path fill="#37474F" d="M288.6 167.9v2.9c0 .3-.2.4-.4.3-.2-.2-.4-.4-.4-.7v-2.9c0-.3.2-.4.4-.3.3.2.4.5.4.7z"/>
	<path fill="#FFBDA7" d="M412.4 193.2c8 1.9 12.3 4.1 15.6 15 3.1 10.3 8.3 27.7 9.7 35.1.7 3.6 1 7-4 9.1-11.3 4.8-22.2 8.1-22.2 8.1l-4.4-13.3 12.1-6-3-9.7-3.8-38.3z"/>
	<path fill="#F0997A" d="M419.2 241.2c1 2.3 2.8 4.2 5 5.4-2.9.4-5.8-2.7-6.6-4.6l1.6-.8z"/>
	<path fill="#263238" d="M373.5 153.4c-1.4-1.9-1.2-4.7-.2-6.8s2.9-4.3 8.3-6.6c6.4-2.8 23.8-4.6 30.4 7.1 1 1.7-17.2 32.5-16.8 39.1-4-4.8-17.1-21.8-17.1-21.8-3.3-1.7-5.2-3-5.7-6.3-.2-1.7.2-3.3 1.1-4.7z"/>
	<path fill="#F0997A" d="M375.4 162.4s-5.1 7.1-4.6 7.8c1 .9 2.1 1.7 3.2 2.5l1.4-10.3z"/>
	<path fill="#FFBDA7" d="M382 149.2c-3.2 1.2-6 3.4-7.4 10-.4 1.7.8 4.2 0 6.5-3.4 9.8-.8 18.3 1 20.3 1.2 1.3 8 2.4 11.7 1.6 4.6-.9 14.7-4.7 19.8-11.4 6.1-7.9 8.1-18.9 2.4-23.8-8.1-6.8-24.1-4.5-27.5-3.2z"/>
	<path fill="#FFBDA7" d="m403.9 181.8.6 9.9c5.5 3.2-5.9 7.4-18 2.3l-.9-9 18.3-3.2z"/>
	<path fill="#FFBDA7" d="M385.9 189.1c.2 2.3.5 5.7-3.1 6.7-3.4.9-8.8 1.4-14.1 3.4 0 0 19 3 29 1.4s11.7-8.1 11.7-8.1c-3.6-.5-5.1-1.1-5.2-3.4h-18.3z"/>
	<path fill="#F0997A" d="M376 186.4c1.5 1 5 1.9 9.8 1.6l-.2-2.5c-1.5.5-3.1.8-4.6 1-1.7.2-3.4.1-5-.1z"/>
	<path fill="#263238" d="M377.2 152.5c-.5 4.3 2.2 5.9 4 6.9-.9 1.5-1.3 3.3-1.2 5.1.3 2.2 1 4.1 3.1 5 1.3.5 1.7 0 2.3-1 .8-1.4 1.8-3.7 5-3 3.6.8 4.2 6.4 1.8 9.8-.9 1.5-2.6 2.4-4.3 2.5-1-.1-1.8-.6-2.4-1.4 0 0-.1 4.8 5.9 8.1 0 0 6 4 12.5 2.5 3.1-3 6.1-6.1 8.9-9.5 7.5-9.3 9-26.9-2.3-30.9-.5-.2-9.8-2.5-15-1.8-15.8 2.3-18.2 6.9-18.3 7.7z"/>
	<path fill="#263238" d="M412 147.1c1.8 0 7.2 2.8 7.1 14.7 0 8.1-2 18.9-4.6 23.9-6.9 7.6-27 9.1-35.8 5.9 5.7-2.6 6.8-9.8 6.7-15.3 2.6 4 7.4 4.9 13.2 2s13.4-31.2 13.4-31.2z"/>
	<path fill="#EC1D27" d="M420.1 203.1c-1.7-8.1-6-9.8-8-10.2-3.1-.6-5-.9-5-.9.1 1 .7 3.2-8.2 4.4-5.8.7-15.6-.8-15.6-.8l-8.9 1.2c-3.3 2-11.3 9.7-15.1 18.7-3 7.1-1.9 14.3 3.5 19.5.4 4.4-.3 13.2-.3 13.2-3.1 16-4.8 22.7-4.8 22.7s4.2 6.5 31.3 5.9c21-.5 30.7-9.9 30.7-9.9-.6-3.1-2.8-9.9-6.8-20.3.5-10 10.8-26 7.2-43.5z"/>
	<path fill="#FFBDA7" d="M329.3 208.1S309 195.7 307.8 194c-1.1-1.4-1-3.2-1.2-4.9-.3-1.9-.9-3.8-1.7-5.6-.5-1.2-1.3-2.3-1.7-3.4s-.4-2.3-.8-3.4-1.5-.8-2.2 0c-.9 1.1-1.2 2.5-1.1 3.9 0 .6.1 1.2.1 1.8.1.6.1 1.1.1 1.7 0 .3-.1.6-.3.8-.5.4-1.3-.2-1.7-.5-2.5-2.1-4.6-4.6-6.1-7.5-.6-1.2-1-2.5-1.8-3.7-.7-1.1-1.5-2.1-2.4-3-.6-.6-1.4-1-2.3-1.2-1.4.1-.6 2.5-.5 3.2.2.9.1 1.7-.2 2.6-.4 1-.4 2 0 3 .3 1 .9 2.2.7 3.3-.1.4-.2.7-.4 1.1-.2 1.2-.1 2.4.4 3.4s.6 2.1.3 3.2c-.5 2.5 1.5 5 3 6.8 1.8 2 3.8 3.7 6 5.2 1.2.8 2.3 1.7 3.4 2.5s2.2 1.3 3.2 2.1c2.4 1.9 11.5 10.7 22 19.3 3.5 2.8 4.6 3.8 11.3 2.6 12.2-2.2 14.9-2.8 22.2-4.1 11.1-2.1 12.5-2.4 12.5-2.4 6.9-3 7.9-11.3 8.1-15.4.2-3-.6-5.9-2.2-8.5-6.3.3-11.8 1.8-21.9 4.7-12.1 3.5-23.3 6.5-23.3 6.5z"/>
  </svg>